<svg width="47" height="47" viewBox="0 0 47 47" fill="none" xmlns="http://www.w3.org/2000/svg">
<g clip-path="url(#clip0_3316_22147)">
<path d="M6.78833 42.1814L2.96484 0.305054H44.0218L40.2894 42.1814L23.5389 46.9152" fill="#264DE4"/>
<path d="M23.5391 3.67334V43.2738L37.1034 39.5413L40.2896 3.67334" fill="#2965F1"/>
<path d="M10.6123 8.86243H23.5393V13.9604H11.0675M11.5227 19.2405H23.5393V24.4295H11.9778M12.2509 26.9785H17.3489L17.7131 31.0751L23.5393 32.6227V37.9938L12.8882 35.0806" fill="#EBEBEB"/>
<path d="M23.5391 19.2405V24.4295H29.8205L29.1833 31.0751L23.5391 32.6227V37.9938L34.0081 35.0806L36.3751 8.86243H23.5391V13.9604H30.8219L30.3212 19.2405H23.5391Z" fill="white"/>
</g>
<defs>
<clipPath id="clip0_3316_22147">
<rect width="46.6102" height="46.6102" fill="white" transform="translate(0.234375 0.305054)"/>
</clipPath>
</defs>
</svg>
