<svg width="51" height="50" viewBox="0 0 51 50" fill="none" xmlns="http://www.w3.org/2000/svg">
<g clip-path="url(#clip0_3316_24069)">
<path d="M6.16564 11.4015C6.16564 9.58254 7.64016 8.10802 9.45912 8.10802H49.3385V6.89699C49.3385 5.07804 47.864 3.60352 46.045 3.60352H4.95461C3.13565 3.60352 1.66113 5.07804 1.66113 6.89699V33.6623C1.66113 35.4812 3.13565 36.9558 4.95461 36.9558H6.16564V11.4015Z" fill="#333C4A"/>
<path d="M49.3386 31.7818H1.66128C1.03927 31.7818 0.535156 31.2772 0.535156 30.6557C0.535156 30.0337 1.03927 29.5295 1.66128 29.5295H49.3386C49.9607 29.5295 50.4648 30.0337 50.4648 30.6557C50.4648 31.2772 49.9607 31.7818 49.3386 31.7818Z" fill="#1AE5BE"/>
<path d="M46.0452 2.47754H4.9548C2.51779 2.47754 0.5 4.46014 0.5 6.89714V33.6624C0.5 36.0994 2.51779 38.0631 4.9548 38.0631H18.0676V46.3965C18.0676 47.0185 18.5717 47.5226 19.1937 47.5226C19.8157 47.5226 20.3198 47.0185 20.3198 46.3965V38.0631H30.6802V46.3965C30.6802 47.0185 31.1843 47.5226 31.8063 47.5226C32.4283 47.5226 32.9324 47.0185 32.9324 46.3965V38.0631H46.0452C48.4822 38.0631 50.5 36.0994 50.5 33.6624V6.89714C50.5 4.46014 48.4822 2.47754 46.0452 2.47754ZM48.1351 33.6435C48.1351 34.8405 47.1647 35.8109 45.9678 35.8109H4.91961C3.72266 35.8109 2.75225 34.8405 2.75225 33.6435V6.89714C2.75225 5.7002 3.72266 4.72979 4.91961 4.72979H45.9678C47.1647 4.72979 48.1351 5.7002 48.1351 6.89714V33.6435Z" fill="#648AFF"/>
<path d="M36.2153 47.5225H15.3771C14.7555 47.5225 14.251 47.0184 14.251 46.3964C14.251 45.7744 14.7555 45.2703 15.3771 45.2703H36.2153C36.8373 45.2703 37.3414 45.7744 37.3414 46.3964C37.3414 47.0184 36.8373 47.5225 36.2153 47.5225Z" fill="#1AE5BE"/>
</g>
<defs>
<clipPath id="clip0_3316_24069">
<rect width="50" height="50" fill="white" transform="translate(0.5)"/>
</clipPath>
</defs>
</svg>
