<svg width="51" height="50" viewBox="0 0 51 50" fill="none" xmlns="http://www.w3.org/2000/svg">
<g clip-path="url(#clip0_3316_24039)">
<path d="M6.75 17.418C6.75 14.6567 8.98877 12.418 11.75 12.418H49.25C49.3765 12.418 49.501 12.4243 49.625 12.4336V11.9717C49.625 9.21045 47.3862 6.97168 44.625 6.97168H7.125C4.36377 6.97168 2.125 9.21045 2.125 11.9717V37.1357C2.12598 39.7515 4.14209 41.9243 6.75 42.1206V17.418Z" fill="#333C4A"/>
<path d="M20.5361 25.4204C16.3267 25.4204 12.9141 22.0078 12.9141 17.7983C12.9141 13.5889 16.3267 10.1763 20.5361 10.1763C24.7456 10.1763 28.1582 13.5889 28.1582 17.7983C28.1533 22.0059 24.7437 25.416 20.5361 25.4204ZM20.5361 12.6768C17.7075 12.6768 15.4141 14.9697 15.4141 17.7988C15.4141 20.6274 17.7075 22.9204 20.5361 22.9204C23.3647 22.9204 25.6582 20.6274 25.6582 17.7988C25.6548 14.9712 23.3638 12.6797 20.5361 12.6768Z" fill="#1AE5BE"/>
<path d="M50.5 12.375C50.5 8.92334 47.7017 6.125 44.25 6.125H6.75C3.29834 6.125 0.5 8.92334 0.5 12.375V37.5C0.5 40.9517 3.29834 43.75 6.75 43.75H44.25C47.7017 43.75 50.5 40.9517 50.5 37.5V12.375ZM6.75 8.625H44.25C46.3179 8.625 48 10.3501 48 12.418V35.3394L36.8945 28.2056C35.2363 27.0415 32.9756 27.2671 31.5796 28.7358L28.0337 32.4307L19.5859 27.1899C18.1274 26.2881 16.2632 26.3833 14.9038 27.4287L3 35.3125V12.418C3 10.3501 4.68213 8.625 6.75 8.625ZM3.06445 38.2905L16.3257 29.4966C16.3555 29.4766 16.3848 29.4502 16.4131 29.4277C16.9463 29.0039 17.688 28.9595 18.2681 29.3169L26.2642 34.2979L19.4922 41.375H6.75C4.94092 41.3628 3.39502 40.0688 3.06445 38.2905ZM44.25 41.375H22.957L33.3833 30.4883C33.9312 29.9058 34.8242 29.8154 35.478 30.2759C35.4927 30.2861 35.5078 30.291 35.523 30.3008L47.9356 38.2935C47.6045 40.0713 46.0581 41.3643 44.25 41.375Z" fill="#648AFF"/>
</g>
<defs>
<clipPath id="clip0_3316_24039">
<rect width="50" height="50" fill="white" transform="translate(0.5)"/>
</clipPath>
</defs>
</svg>
