<svg width="48" height="47" viewBox="0 0 48 47" fill="none" xmlns="http://www.w3.org/2000/svg">
<path d="M44.7718 34.9041C43.2798 35.2756 42.357 34.9204 41.5289 33.7027L35.6404 25.724L34.7893 24.6193L27.9126 33.7291C27.1269 34.825 26.3027 35.302 24.8363 34.9141L33.6421 23.3376L25.4439 12.8809C26.8538 12.6122 27.828 12.7491 28.6932 13.9855L34.8009 22.0635L40.9534 14.0295C41.7417 12.9336 42.589 12.5168 44.004 12.921L40.8252 17.0485L36.5185 22.5405C36.0057 23.1682 36.0762 23.5975 36.5479 24.2038L44.7718 34.9041ZM3.76514 23.1443L4.4855 19.6746C6.44662 12.8081 14.4834 9.95473 20.0258 14.1977C23.2649 16.6933 24.0698 20.2232 23.9096 24.1774H5.65192C5.37762 31.2951 10.6086 35.5907 17.2777 33.399C19.6169 32.6294 20.9948 30.8356 21.6844 28.5911C22.0343 27.4663 22.6137 27.2906 23.693 27.612C23.1418 30.4188 21.8985 32.7638 19.2708 34.2312C15.3447 36.428 9.74079 35.7175 6.7927 32.6646C5.03666 30.8934 4.31118 28.6489 3.9856 26.2487C3.93433 25.852 3.83179 25.4742 3.75488 25.0938C3.76172 24.4444 3.76514 23.795 3.76514 23.1456V23.1443ZM5.68524 22.6673H22.1843C22.0766 17.5205 18.8043 13.865 14.3321 13.8337C9.42291 13.796 5.89802 17.3648 5.68524 22.6673Z" fill="#A987B0"/>
</svg>
