<svg width="47" height="47" viewBox="0 0 47 47" fill="none" xmlns="http://www.w3.org/2000/svg">
<path d="M3.86531 25.4483C2.72849 24.3114 2.72849 22.4683 3.86531 21.3315L21.3462 3.85054C22.4831 2.71372 24.3262 2.71372 25.4631 3.85054L42.9439 21.3315C44.0808 22.4683 44.0808 24.3114 42.9439 25.4483L25.4631 42.9291C24.3262 44.066 22.4831 44.066 21.3462 42.9291L3.86531 25.4483Z" fill="#EE513B"/>
<path d="M17.7956 7.45715L16.0254 9.22738L20.5974 13.7994C20.4124 14.1962 20.3092 14.6387 20.3092 15.1054C20.3092 16.4303 21.1416 17.5608 22.3119 18.0022V29.1866C21.1416 29.6281 20.3092 30.7586 20.3092 32.0835C20.3092 33.7929 21.6949 35.1787 23.4044 35.1787C25.1138 35.1787 26.4996 33.7929 26.4996 32.0835C26.4996 30.8824 25.8154 29.8409 24.8155 29.3279V18.0175L29.1859 22.388C29.01 22.7767 28.9121 23.2083 28.9121 23.6628C28.9121 25.3722 30.2979 26.758 32.0073 26.758C33.7167 26.758 35.1025 25.3722 35.1025 23.6628C35.1025 21.9533 33.7167 20.5675 32.0073 20.5675C31.675 20.5675 31.3552 20.6198 31.0551 20.7167L26.3613 16.0229C26.4512 15.7331 26.4996 15.4248 26.4996 15.1054C26.4996 13.396 25.1138 12.0102 23.4044 12.0102C23.0849 12.0102 22.7769 12.0586 22.4869 12.1484L17.7956 7.45715Z" fill="white"/>
</svg>
