<svg width="47" height="47" viewBox="0 0 47 47" fill="none" xmlns="http://www.w3.org/2000/svg">
<g clip-path="url(#clip0_3316_22175)">
<path fill-rule="evenodd" clip-rule="evenodd" d="M23.6893 0.570312C10.8206 0.570312 0.385742 11.045 0.385742 23.9692C0.385742 34.305 7.06264 43.0748 16.325 46.1691C17.4902 46.384 17.9155 45.6616 17.9155 45.0416C17.9155 44.4859 17.8951 43.0148 17.8835 41.0626C11.4003 42.4766 10.0326 37.9259 10.0326 37.9259C8.97367 35.2234 7.44573 34.504 7.44573 34.504C5.32934 33.0519 7.60594 33.0811 7.60594 33.0811C9.94373 33.2463 11.1745 35.4925 11.1745 35.4925C13.2545 39.0679 16.6294 38.0355 17.9578 37.436C18.169 35.9239 18.772 34.893 19.4376 34.308C14.2625 33.7172 8.82217 31.7109 8.82217 22.7453C8.82217 20.1906 9.72963 18.1023 11.2212 16.466C10.9808 15.8737 10.1812 13.496 11.4484 10.2744C11.4484 10.2744 13.406 9.64559 17.8573 12.6726C19.7173 12.1535 21.7099 11.8947 23.6923 11.8844C25.6718 11.8947 27.6658 12.1535 29.5273 12.6726C33.9757 9.64559 35.9289 10.2744 35.9289 10.2744C37.2005 13.496 36.4008 15.8737 36.1605 16.466C37.6549 18.1023 38.5566 20.1906 38.5566 22.7453C38.5566 31.7328 33.1075 33.7113 27.9163 34.2904C28.7524 35.0128 29.4982 36.4401 29.4982 38.6234C29.4982 41.7513 29.469 44.2738 29.469 45.0416C29.469 45.6674 29.8885 46.3957 31.0713 46.1661C40.3249 43.0659 46.9959 34.3021 46.9959 23.9692C46.9959 11.045 36.561 0.570312 23.6893 0.570312Z" fill="#778295"/>
</g>
<defs>
<clipPath id="clip0_3316_22175">
<rect width="46.6102" height="46.6102" fill="#778295" transform="translate(0.385742 0.0847168)"/>
</clipPath>
</defs>
</svg>
