<svg width="16" height="16" viewBox="0 0 16 16" fill="currentColor" xmlns="http://www.w3.org/2000/svg">
<path fill-rule="evenodd" clip-rule="evenodd" d="M8 0C3.5816 0 0 3.67194 0 8.20291C0 11.8265 2.292 14.9015 5.4712 15.9857C5.8712 16.0611 6.0168 15.808 6.0168 15.5902C6.0168 15.3961 6.0104 14.8794 6.0064 14.1956C3.7808 14.691 3.3112 13.0958 3.3112 13.0958C2.948 12.1475 2.4232 11.8953 2.4232 11.8953C1.6968 11.3876 2.4784 11.3974 2.4784 11.3974C3.2808 11.4548 3.7032 12.2425 3.7032 12.2425C4.4168 13.4955 5.576 13.1335 6.0312 12.9239C6.1048 12.394 6.3112 12.0329 6.54 11.8282C4.764 11.621 2.896 10.9167 2.896 7.77381C2.896 6.87875 3.208 6.14584 3.7192 5.57261C3.6368 5.36543 3.3624 4.53097 3.7976 3.40252C3.7976 3.40252 4.4696 3.18142 5.9976 4.24272C6.65021 4.06052 7.32355 3.96772 8 3.96675C8.68 3.97002 9.364 4.06092 10.0032 4.24272C11.5304 3.18142 12.2008 3.40171 12.2008 3.40171C12.6376 4.53097 12.3624 5.36543 12.2808 5.57261C12.7928 6.14584 13.1032 6.87875 13.1032 7.77381C13.1032 10.9249 11.232 11.6185 9.4504 11.8216C9.7376 12.0747 9.9928 12.575 9.9928 13.3407C9.9928 14.4364 9.9832 15.3216 9.9832 15.5902C9.9832 15.8097 10.1272 16.0652 10.5336 15.9849C12.1266 15.438 13.5115 14.3924 14.4924 12.996C15.4733 11.5995 16.0007 9.92286 16 8.20291C16 3.67194 12.4176 0 8 0Z" fill="currentColor"/>
</svg>
