<svg width="16" height="16" viewBox="0 0 16 16" fill="currentColor" xmlns="http://www.w3.org/2000/svg">
<path d="M8 0C5.87827 0 3.84344 0.842855 2.34315 2.34315C0.842855 3.84344 0 5.87827 0 8C0 10.1217 0.842855 12.1566 2.34315 13.6569C3.84344 15.1571 5.87827 16 8 16C10.1217 16 12.1566 15.1571 13.6569 13.6569C15.1571 12.1566 16 10.1217 16 8C16 5.87827 15.1571 3.84344 13.6569 2.34315C12.1566 0.842855 10.1217 0 8 0ZM14.6667 5.76C14.5462 6.15419 14.346 6.51939 14.0784 6.83288C13.8108 7.14636 13.4815 7.40143 13.1111 7.58222C12.9138 6.84134 12.5491 6.15558 12.0452 5.57771C11.5413 4.99984 10.9116 4.54524 10.2044 4.24889C10.3195 3.85449 10.5677 3.51212 10.9067 3.28C10.5244 3.03111 10.0178 2.90667 9.71556 3.34222C9.24444 3.95556 9.71556 4.77333 9.90222 5.12V5.24444C9.40869 4.94509 9.02278 4.49695 8.8 3.96444C7.94111 3.93686 7.09153 4.14925 6.34667 4.57778C6.26934 4.07591 6.31822 3.56269 6.48889 3.08444C6.80988 3.11508 7.13347 3.06624 7.43111 2.94222C7.72875 2.8182 7.99129 2.62283 8.19556 2.37333C8.60444 1.91111 8.08 1.32444 7.67111 0.968889H7.99111C9.20123 0.960727 10.3927 1.26702 11.4489 1.85778C12.0459 2.29898 12.5368 2.86789 12.8859 3.52299C13.235 4.1781 13.4334 4.90288 13.4667 5.64444C13.68 5.64444 14.0889 5.15556 14.2756 4.82667C14.4284 5.128 14.5591 5.44 14.6667 5.76ZM8 14.9689C6.17778 13.12 8.22222 11.6356 7.11111 10.3111C6.29333 9.55556 5.07556 10.08 4.34667 9.21778C4.22362 8.57499 4.27682 7.91088 4.5006 7.29586C4.72438 6.68085 5.11042 6.13785 5.61778 5.72444C6.08 5.33333 9.17333 4.83556 10.4356 5.92C11.1738 6.55586 11.6932 7.40798 11.92 8.35556C12.3279 8.38637 12.7359 8.29674 13.0933 8.09778C13.4578 10.7467 10.2933 14.0889 8 14.9689ZM4.57778 1.85778C4.91749 1.72826 5.29068 1.71562 5.63838 1.82186C5.98608 1.9281 6.28847 2.14717 6.49778 2.44444C6.12444 2.78222 5.66222 3.00444 5.16444 3.08444C5.18283 2.82271 5.23974 2.56512 5.33333 2.32L4.57778 1.85778Z" fill="currentColor"/>
</svg>
