<svg width="48" height="47" viewBox="0 0 48 47" fill="none" xmlns="http://www.w3.org/2000/svg">
<g clip-path="url(#clip0_3316_22140)">
<path d="M7.41312 42.1814L3.68066 0.305054H44.7377L41.0052 42.1814L24.1636 46.9152" fill="#E34F26"/>
<path d="M24.2549 43.2738L37.8192 39.5413L41.0054 3.67334H24.2549" fill="#EF652A"/>
<path d="M24.2542 19.2405H17.4265L16.9713 13.9604H24.2542V8.86243H11.3271L12.6927 24.4295H24.2542V19.2405ZM24.1632 32.6227L18.4279 31.0751L18.0638 26.9785H12.9658L13.603 35.0806L24.1632 37.9938V32.6227Z" fill="#EBEBEB"/>
<path d="M24.1631 19.2405V24.4295H30.5356L29.8983 31.0751L24.1631 32.6227V37.9938L34.7232 35.0806L36.1798 19.2405H24.1631ZM24.1631 8.86243V13.9604H36.6349L37.0901 8.86243H24.1631Z" fill="white"/>
</g>
<defs>
<clipPath id="clip0_3316_22140">
<rect width="46.6102" height="46.6102" fill="white" transform="translate(0.949219 0.305054)"/>
</clipPath>
</defs>
</svg>
