<svg width="47" height="47" viewBox="0 0 47 47" fill="none" xmlns="http://www.w3.org/2000/svg">
<g clip-path="url(#clip0_3316_22190)">
<path d="M23.5482 46.6949C36.4193 46.6949 46.8533 36.2608 46.8533 23.3898C46.8533 10.5188 36.4193 0.0847168 23.5482 0.0847168C10.6772 0.0847168 0.243164 10.5188 0.243164 23.3898C0.243164 36.2608 10.6772 46.6949 23.5482 46.6949Z" fill="#13AA52"/>
<path d="M29.7781 20.5423C28.306 14.0455 24.8271 11.9094 24.4525 11.0932C24.0428 10.5174 23.6277 9.49327 23.6277 9.49327C23.6209 9.47598 23.61 9.44548 23.5972 9.41589C23.5549 9.99169 23.533 10.2138 22.9887 10.7946C22.1457 11.4537 17.8206 15.0829 17.4687 22.464C17.1405 29.3481 22.4415 33.4502 23.1584 33.9732L23.2399 34.031V34.026C23.2445 34.0606 23.4675 35.6646 23.6241 37.3642H24.1858C24.3176 36.1628 24.5151 34.9695 24.7775 33.7897L24.823 33.7601C25.1437 33.5302 25.4494 33.2801 25.7384 33.0114L25.7712 32.9818C27.2951 31.5739 30.0348 28.3176 30.0079 23.1258C30.0023 22.2598 29.9254 21.3957 29.7781 20.5423ZM23.5645 30.0864C23.5645 30.0864 23.5645 20.4312 23.8831 20.433C24.1316 20.433 24.4534 32.8871 24.4534 32.8871C24.011 32.8339 23.5645 30.8375 23.5645 30.0864Z" fill="white"/>
</g>
<defs>
<clipPath id="clip0_3316_22190">
<rect width="46.6102" height="46.6102" fill="white" transform="translate(0.243164 0.0847168)"/>
</clipPath>
</defs>
</svg>
