<svg width="47" height="47" viewBox="0 0 47 47" fill="none" xmlns="http://www.w3.org/2000/svg">
<g clip-path="url(#clip0_3316_22130)">
<path d="M22.1557 0.317597C22.0555 0.326708 21.7365 0.358597 21.4495 0.381374C14.8293 0.978152 8.62827 4.54971 4.70081 10.0391C2.51382 13.0914 1.11506 16.5536 0.586539 20.2208C0.399734 21.5009 0.376953 21.879 0.376953 23.6147C0.376953 25.3504 0.399734 25.7285 0.586539 27.0086C1.85317 35.7598 8.08153 43.1125 16.5288 45.8367C18.0414 46.3241 19.6361 46.6567 21.4495 46.8571C22.1557 46.9346 25.2084 46.9346 25.9146 46.8571C29.0447 46.5109 31.6964 45.7365 34.3117 44.4017C34.7127 44.1967 34.7901 44.142 34.7354 44.0965C34.699 44.0691 32.9904 41.7777 30.9401 39.0079L27.2131 33.974L22.543 27.0633C19.9733 23.2639 17.8592 20.157 17.841 20.157C17.8227 20.1525 17.8045 23.2229 17.7954 26.9721C17.7817 33.5367 17.7772 33.8009 17.6952 33.9558C17.5767 34.179 17.4856 34.2701 17.2942 34.3704C17.1484 34.4433 17.0208 34.4569 16.3328 34.4569H15.5446L15.335 34.3248C15.1983 34.2383 15.0981 34.1244 15.0298 33.9923L14.9341 33.7873L14.9432 24.6534L14.9569 15.5149L15.0981 15.3373C15.171 15.2416 15.3259 15.1186 15.4353 15.0594C15.6221 14.9683 15.695 14.9591 16.4832 14.9591C17.4127 14.9591 17.5676 14.9956 17.8091 15.2598C17.8774 15.3327 20.4061 19.1411 23.4314 23.7286C26.4568 28.316 30.5938 34.5799 32.6259 37.6549L36.3164 43.2446L36.5033 43.1216C38.1572 42.0465 39.9067 40.5158 41.2918 38.9214C44.2397 35.5366 46.1397 31.4093 46.7775 27.0086C46.9643 25.7285 46.9871 25.3504 46.9871 23.6147C46.9871 21.879 46.9643 21.5009 46.7775 20.2208C45.5109 11.4696 39.2825 4.11693 30.8353 1.39271C29.3454 0.909819 27.7599 0.577263 25.9829 0.376819C25.5455 0.331263 22.5339 0.281152 22.1557 0.317597ZM31.6964 14.4125C31.9151 14.5218 32.0928 14.7314 32.1566 14.95C32.1931 15.0685 32.2022 17.6014 32.1931 23.3095L32.1794 31.5004L30.7351 29.2864L29.2862 27.0724V21.1183C29.2862 17.2688 29.3044 15.1049 29.3318 15.0001C29.4047 14.745 29.5641 14.5446 29.7828 14.4261C29.9696 14.3305 30.038 14.3214 30.7533 14.3214C31.4276 14.3214 31.5461 14.3305 31.6964 14.4125Z" fill="#5E17EB"/>
</g>
<defs>
<clipPath id="clip0_3316_22130">
<rect width="46.6102" height="46.6102" fill="white" transform="translate(0.376953 0.305054)"/>
</clipPath>
</defs>
</svg>
