<svg width="48" height="47" viewBox="0 0 48 47" fill="none" xmlns="http://www.w3.org/2000/svg">
<g clip-path="url(#clip0_3316_22181)">
<path d="M23.977 46.6084C23.3358 46.6084 22.7375 46.4374 22.1818 46.1382L16.4973 42.7617C15.6424 42.2915 16.0699 42.1206 16.3263 42.0351C17.4803 41.6504 17.694 41.5649 18.8908 40.8811C19.019 40.7956 19.19 40.8384 19.3182 40.9238L23.6778 43.531C23.8487 43.6165 24.0624 43.6165 24.1907 43.531L41.2444 33.6578C41.4153 33.5724 41.5008 33.4014 41.5008 33.1877V13.4841C41.5008 13.2703 41.4153 13.0994 41.2444 13.0139L24.1907 3.18345C24.0197 3.09796 23.806 3.09796 23.6778 3.18345L6.62407 13.0139C6.45311 13.0994 6.36763 13.3131 6.36763 13.4841V33.1877C6.36763 33.3587 6.45311 33.5724 6.62407 33.6578L11.2829 36.3505C13.8046 37.6328 15.386 36.1368 15.386 34.6409V15.1937C15.386 14.9372 15.5997 14.6808 15.8989 14.6808H18.0787C18.3351 14.6808 18.5916 14.8945 18.5916 15.1937V34.6409C18.5916 38.0174 16.7537 39.9835 13.5481 39.9835C12.5651 39.9835 11.7957 39.9835 9.61595 38.915L5.12813 36.3505C4.01687 35.7094 3.33301 34.5127 3.33301 33.2304V13.5268C3.33301 12.2446 4.01687 11.0478 5.12813 10.4067L22.1818 0.533498C23.2504 -0.064877 24.7036 -0.064877 25.7721 0.533498L42.8258 10.4067C43.937 11.0478 44.6209 12.2446 44.6209 13.5268V33.2304C44.6209 34.5127 43.937 35.7094 42.8258 36.3505L25.7721 46.2237C25.2164 46.4802 24.5753 46.6084 23.977 46.6084ZM29.2341 33.0595C21.7544 33.0595 20.2157 29.6402 20.2157 26.7338C20.2157 26.4773 20.4294 26.2209 20.7286 26.2209H22.9512C23.2076 26.2209 23.4213 26.3919 23.4213 26.6483C23.7633 28.9136 24.7463 30.0249 29.2769 30.0249C32.8671 30.0249 34.4058 29.2128 34.4058 27.2894C34.4058 26.1782 33.9784 25.3661 28.3793 24.8104C23.7205 24.3403 20.8141 23.3145 20.8141 19.596C20.8141 16.134 23.7205 14.0824 28.593 14.0824C34.0639 14.0824 36.7565 15.963 37.0985 20.0662C37.0985 20.1944 37.0557 20.3226 36.9702 20.4508C36.8848 20.5363 36.7565 20.6218 36.6283 20.6218H34.4058C34.1921 20.6218 33.9784 20.4508 33.9356 20.2371C33.4227 17.8864 32.0978 17.117 28.593 17.117C24.6608 17.117 24.1907 18.4848 24.1907 19.5105C24.1907 20.75 24.7463 21.1347 30.0462 21.8186C35.3033 22.5024 37.7823 23.4855 37.7823 27.1612C37.7396 30.9224 34.6622 33.0595 29.2341 33.0595Z" fill="#539E43"/>
</g>
<defs>
<clipPath id="clip0_3316_22181">
<rect width="46.6102" height="46.6102" fill="white" transform="translate(0.670898 0.0847168)"/>
</clipPath>
</defs>
</svg>
