<svg width="51" height="50" viewBox="0 0 51 50" fill="none" xmlns="http://www.w3.org/2000/svg">
<g clip-path="url(#clip0_3316_24047)">
<path d="M30.9445 36.7768L45.5685 23.9636L43.5642 21.6746L28.6666 34.7267L27.4707 40.3761L30.2153 40.2168L30.9445 36.7768Z" fill="#333C4A"/>
<path d="M15.9329 2.23276L25.0218 2.24388V6.79969L22.0716 6.777H11.7757C9.25931 6.77611 7.21898 8.81644 7.21987 11.3328V47.6311C4.7035 47.632 2.66317 45.5917 2.66406 43.0753V6.777C2.66317 4.26063 4.7035 2.2203 7.21987 2.22119L15.9329 2.23276Z" fill="#333C4A"/>
<path d="M37.6988 13.4282V13.4513H29.9308C27.4144 13.4518 25.3746 11.4119 25.375 8.89551V1.15063H25.3981L37.6988 13.4282Z" fill="#333C4A"/>
<path d="M26.2064 0.353253C26.016 0.165504 25.7664 0.0489394 25.5003 0.0226901L25.2499 0H7.22015C4.07558 0.00133472 1.52673 2.55019 1.52539 5.69476V44.3052C1.52673 47.4498 4.07558 49.9987 7.22015 50H33.1429C36.2875 49.9987 38.8363 47.4498 38.8376 44.3052V42.2667H36.5597V44.3052C36.554 46.1899 35.0275 47.7168 33.1429 47.7221H7.22015C5.33554 47.7168 3.80863 46.1899 3.80329 44.3052V5.69476C3.80863 3.81015 5.33554 2.28324 7.22015 2.2779H24.2359V8.90652C24.2373 12.0511 26.7861 14.6004 29.9307 14.6013H36.5597V20.6377H38.8376V13.4396C38.8354 13.1375 38.7171 12.8484 38.5071 12.6308L26.2064 0.353253ZM26.5138 8.90652V3.88401L34.9652 12.3234H29.9307C28.0461 12.318 26.5196 10.7916 26.5138 8.90652Z" fill="#648AFF"/>
<path d="M44.4291 20.9225C44.2315 20.6934 43.9499 20.5532 43.6478 20.5341C43.3457 20.5145 43.0485 20.6177 42.8234 20.8202L27.9143 33.8723C27.7256 34.0342 27.597 34.2549 27.5499 34.4987L26.354 40.1365C26.2859 40.4844 26.378 40.8439 26.6045 41.1162C26.822 41.368 27.1375 41.5131 27.4702 41.5148H27.5383L33.3812 41.1847C33.6348 41.1705 33.876 41.0699 34.0646 40.9L48.9738 27.8474C49.2024 27.6476 49.3421 27.3647 49.3608 27.0617C49.384 26.7605 49.2807 26.4633 49.0761 26.2413L44.4291 20.9225ZM32.8576 38.9295L28.8824 39.1573L29.6912 35.3302L43.4498 23.28L46.6046 26.8793L32.8576 38.9295Z" fill="#1AE5BE"/>
</g>
<defs>
<clipPath id="clip0_3316_24047">
<rect width="50" height="50" fill="white" transform="translate(0.5)"/>
</clipPath>
</defs>
</svg>
