<svg width="48" height="47" viewBox="0 0 48 47" fill="none" xmlns="http://www.w3.org/2000/svg">
<path d="M28.012 23.575C28.012 21.4857 26.2651 19.7917 24.11 19.7917C21.9552 19.7917 20.208 21.4857 20.208 23.575C20.208 25.6646 21.9552 27.3585 24.11 27.3585C26.2651 27.3585 28.012 25.6646 28.012 23.575Z" fill="#53C1DE"/>
<path fill-rule="evenodd" clip-rule="evenodd" d="M36.782 16.5512C37.606 13.3046 38.6417 7.28421 34.9904 5.2431C31.3561 3.21088 26.6268 7.10498 24.1295 9.44241C21.6395 7.12827 16.7773 3.25082 13.1291 5.29842C9.49626 7.33745 10.6165 13.2581 11.4588 16.525C8.06999 17.4582 2.26074 19.4683 2.26074 23.5751C2.26074 27.6702 8.06394 29.8571 11.4327 30.7895C10.5873 34.0745 9.52313 39.9105 13.1606 41.945C16.8225 43.9922 21.6695 40.207 24.19 37.8441C26.7033 40.1952 31.3871 44.0052 35.0222 41.965C38.6685 39.9184 37.7188 33.9786 36.8765 30.6927C40.1421 29.7584 45.9578 27.6191 45.9578 23.5751C45.9578 19.5078 40.1174 17.4814 36.782 16.5512ZM36.368 28.9514C35.815 27.2539 35.0685 25.4488 34.1554 23.5841C35.027 21.7634 35.7445 19.9816 36.2821 18.295C38.7272 18.9824 44.0912 20.5533 44.0912 23.5751C44.0912 26.6253 38.9438 28.211 36.368 28.9514ZM34.0867 40.3986C31.3746 41.9207 27.3459 38.2772 25.4898 36.5458C26.7212 35.24 27.9517 33.722 29.1526 32.0363C31.2652 31.8546 33.2609 31.5575 35.0708 31.1519C35.6636 33.4761 36.8108 38.8696 34.0867 40.3986ZM14.0933 40.3769C11.3809 38.8604 12.6207 33.6526 13.2426 31.2328C15.0324 31.6168 17.0137 31.893 19.1313 32.0594C20.3401 33.7089 21.6063 35.225 22.8822 36.5528C21.3058 38.0314 16.8184 41.9003 14.0933 40.3769ZM4.12732 23.5751C4.12732 20.5135 9.4592 18.954 11.9601 18.2684C12.507 19.9928 13.2243 21.7959 14.0899 23.6192C13.213 25.4696 12.4855 27.3013 11.9336 29.0461C9.54896 28.3842 4.12732 26.6385 4.12732 23.5751ZM14.0643 6.86481C16.7878 5.33632 21.0136 9.05882 22.8215 10.7343C21.5521 12.056 20.2976 13.5607 19.0991 15.2007C17.044 15.3854 15.0767 15.6819 13.2682 16.0793C12.5896 13.4444 11.3438 8.39166 14.0643 6.86481ZM30.488 17.1679C31.8822 17.3385 33.2181 17.5654 34.4723 17.8431C34.0958 19.0133 33.6265 20.2369 33.0737 21.4913C32.2724 20.0173 31.4123 18.5728 30.488 17.1679ZM24.1301 12.0277C24.9911 12.932 25.8534 13.9419 26.7017 15.0376C24.981 14.9586 23.2576 14.9583 21.537 15.0364C22.386 13.9509 23.2557 12.9425 24.1301 12.0277ZM15.1608 21.49C14.6172 20.24 14.1521 19.0109 13.7723 17.824C15.0191 17.5535 16.3487 17.3324 17.7339 17.1646C16.8069 18.5664 15.9483 20.0103 15.1608 21.49ZM17.7736 30.1148C16.3427 29.9599 14.993 29.7501 13.7466 29.487C14.1324 28.2792 14.6077 27.0237 15.163 25.7467C15.9612 27.2418 16.833 28.6997 17.7736 30.1148ZM24.1818 35.2503C23.2971 34.3247 22.4145 33.3009 21.5527 32.1997C23.2831 32.2655 25.0168 32.2657 26.7471 32.1908C25.8962 33.3121 25.0369 34.3374 24.1818 35.2503ZM33.0915 25.6817C33.6756 26.9725 34.1679 28.2212 34.559 29.4086C33.2919 29.689 31.924 29.9148 30.4828 30.0824C31.4139 28.6509 32.2877 27.184 33.0915 25.6817ZM28.1109 30.3018C25.464 30.4852 22.8007 30.4831 20.1529 30.3168C18.6484 28.186 17.3091 25.9451 16.153 23.6186C17.3036 21.297 18.6331 19.0604 20.1305 16.933C22.7801 16.7388 25.4461 16.7382 28.0957 16.9342C29.5803 19.0615 30.9078 21.2922 32.085 23.5929C30.9218 25.9133 29.5852 28.1544 28.1109 30.3018ZM34.0581 6.81101C36.7823 8.33449 35.5697 13.7452 34.9745 16.0981C33.1617 15.6924 31.193 15.3906 29.1319 15.203C27.9311 13.5454 26.6871 12.038 25.4382 10.7334C27.2693 9.0218 31.3602 5.30242 34.0581 6.81101Z" fill="#53C1DE"/>
</svg>
