<svg width="47" height="47" viewBox="0 0 47 47" fill="none" xmlns="http://www.w3.org/2000/svg">
<path d="M31.8262 31.7029C33.4388 31.5388 34.6621 30.1721 34.6065 28.5318C34.551 26.8919 33.1607 25.5798 31.4925 25.5798H31.3814C29.6574 25.6344 28.323 27.0559 28.3787 28.7506C28.4343 29.5707 28.7679 30.2813 29.2683 30.7734C27.3777 34.4363 24.4861 37.1151 20.1489 39.3566C17.2017 40.8873 14.1435 41.4341 11.0852 41.0515C8.58285 40.7235 6.63663 39.6302 5.41312 37.8258C3.63382 35.147 3.46705 32.2494 4.96845 29.352C6.02503 27.2745 7.69304 25.7437 8.74962 24.9783C8.52721 24.2676 8.1935 23.0649 8.02674 22.1902C-0.0362167 27.9306 0.797953 35.6938 3.24465 39.3566C5.07958 42.0902 8.80526 43.785 12.9201 43.785C14.0322 43.785 15.1443 43.6755 16.2565 43.4024C23.3742 42.0355 28.768 37.8805 31.8262 31.7029ZM41.613 24.9238C37.3869 20.0581 31.159 17.3793 24.0413 17.3793H23.1518C22.6513 16.3953 21.5947 15.7391 20.427 15.7391H20.3157C18.592 15.7939 17.2576 17.2152 17.3131 18.91C17.3688 20.5501 18.7588 21.8622 20.427 21.8622H20.5381C21.7615 21.8076 22.8181 21.0422 23.2629 20.0034H24.2637C28.4899 20.0034 32.4935 21.206 36.1081 23.5569C38.8882 25.361 40.8901 27.7119 42.0022 30.5547C42.9475 32.8509 42.8919 35.0924 41.8909 37.0059C40.334 39.9033 37.7206 41.4887 34.273 41.4887C32.0486 41.4887 29.9357 40.8327 28.8235 40.3407C28.2119 40.8873 27.0996 41.762 26.3211 42.3089C28.7124 43.4022 31.159 44.0037 33.4944 44.0037C38.8326 44.0037 42.7808 41.106 44.2822 38.2086C45.8946 35.0376 45.7833 29.5707 41.613 24.9238ZM13.3649 32.6321C13.4206 34.2722 14.8107 35.5841 16.4789 35.5841H16.5902C18.3139 35.5296 19.6484 34.1082 19.5928 32.4135C19.5373 30.7732 18.147 29.4613 16.4789 29.4613H16.3678C16.2565 29.4613 16.0896 29.4613 15.9786 29.5158C13.6986 25.7983 12.7534 21.7528 13.0871 17.3792C13.3093 14.099 14.4215 11.256 16.3678 8.90518C17.9802 6.88237 21.0942 5.89833 23.2074 5.84379C29.1016 5.73437 31.6036 12.9508 31.7706 15.8483C32.4935 16.0124 33.7168 16.3951 34.551 16.6685C33.8836 7.81205 28.323 3.21973 22.985 3.21973C17.9802 3.21973 13.3649 6.7733 11.5298 12.0216C8.97203 19.0193 10.6402 25.7437 13.7541 31.0468C13.4762 31.4294 13.3093 32.0307 13.3649 32.6321Z" fill="#764ABC"/>
</svg>
