<svg width="48" height="47" viewBox="0 0 48 47" fill="none" xmlns="http://www.w3.org/2000/svg">
<g clip-path="url(#clip0_3316_22154)">
<path d="M40.1392 0.305054H7.51203C3.65072 0.305054 0.520508 3.43527 0.520508 7.29658V39.9237C0.520508 43.785 3.65072 46.9152 7.51203 46.9152H40.1392C44.0005 46.9152 47.1307 43.785 47.1307 39.9237V7.29658C47.1307 3.43527 44.0005 0.305054 40.1392 0.305054Z" fill="#CC6699"/>
<path d="M24.0076 8.31626C15.2682 11.3204 9.62399 17.4198 10.1702 21.0612C10.7164 24.7027 16.1785 27.6158 18.6365 29.5275C15.4503 31.1662 11.4447 33.6241 11.5357 36.8104C11.7178 41.1801 16.4517 39.8145 18.4544 38.54C20.4572 37.2655 22.46 33.7152 21.1855 29.9827C24.0076 29.2544 26.4656 30.1648 27.1938 30.711C30.0159 32.7138 28.5594 34.9897 27.558 35.3538C26.5566 35.7179 27.1938 35.9 27.8311 35.7179C28.4683 35.5359 29.8339 34.6255 29.8339 33.0779C29.8339 29.1634 25.6462 27.3427 20.4572 28.7082C17.453 25.522 13.3564 24.0654 13.5385 20.6061C13.6296 19.3316 14.0847 16.0543 22.1869 11.9577C30.289 7.86108 36.0243 9.49972 35.296 13.2322C34.2036 18.8764 24.3717 22.6999 20.9124 19.4226C20.7303 19.0584 20.0931 18.7853 20.4572 19.7867C22.2779 24.3385 37.0257 22.2447 37.6629 12.5949C37.845 7.49694 30.4711 6.13141 24.0076 8.31626ZM16.1785 37.4476C13.9027 38.1759 13.9937 36.7193 14.0847 36.1731C14.3578 34.6255 15.6323 32.7138 19.4558 30.802C20.5483 34.2614 18.0903 36.9014 16.1785 37.4476Z" fill="white"/>
</g>
<defs>
<clipPath id="clip0_3316_22154">
<rect width="46.6102" height="46.6102" fill="white" transform="translate(0.520508 0.305054)"/>
</clipPath>
</defs>
</svg>
