<svg width="58" height="59" viewBox="0 0 58 59" fill="none" xmlns="http://www.w3.org/2000/svg">
<path d="M14.9688 35.4805C14.9688 38.2839 12.6899 40.5725 9.88655 40.5725C8.53793 40.5686 7.24576 40.0307 6.29282 39.0764C5.33988 38.1221 4.80379 36.8292 4.80188 35.4805C4.80443 34.1323 5.3408 32.84 6.29367 31.8862C7.24654 30.9325 8.53835 30.3949 9.88655 30.391H14.9688V35.4805ZM17.5329 35.4805C17.5329 32.6772 19.8142 30.391 22.6175 30.391C23.9653 30.3955 25.2565 30.9334 26.2089 31.8871C27.1612 32.8408 27.6973 34.1328 27.6998 35.4805V48.226C27.6973 49.5738 27.1612 50.8658 26.2089 51.8195C25.2565 52.7732 23.9653 53.3111 22.6175 53.3155C21.269 53.313 19.9764 52.7758 19.0233 51.8217C18.0701 50.8677 17.5342 49.5746 17.5329 48.226V35.4805ZM22.6175 15.0476C19.8142 15.0476 17.5329 12.7566 17.5329 9.95571C17.5329 7.15479 19.8142 4.86621 22.6175 4.86621C23.9653 4.87068 25.2565 5.40856 26.2089 6.36227C27.1612 7.31597 27.6973 8.60793 27.6998 9.95571V15.0476H22.6175ZM22.6175 17.6093C23.9657 17.6138 25.2573 18.152 26.2097 19.1062C27.1621 20.0604 27.6979 21.353 27.6998 22.7012C27.6973 24.049 27.1612 25.3409 26.2089 26.2947C25.2565 27.2484 23.9653 27.7862 22.6175 27.7907H9.88896C8.54077 27.7869 7.24896 27.2493 6.29609 26.2955C5.34322 25.3417 4.80685 24.0494 4.8043 22.7012C4.80621 21.3526 5.3423 20.0597 6.29523 19.1054C7.24817 18.1511 8.54035 17.6131 9.88896 17.6093H22.6175ZM43.0311 22.7012C43.0311 19.8979 45.3101 17.6093 48.1134 17.6093C49.462 17.6131 50.7542 18.1511 51.7071 19.1054C52.66 20.0597 53.1961 21.3526 53.1981 22.7012C53.1955 24.0494 52.6591 25.3417 51.7063 26.2955C50.7534 27.2493 49.4616 27.7869 48.1134 27.7907H43.0311V22.7012ZM40.4671 22.7012C40.4671 25.5045 38.1857 27.7907 35.3824 27.7907C34.0346 27.7862 32.7434 27.2484 31.7911 26.2947C30.8387 25.3409 30.3027 24.049 30.3001 22.7012V9.95571C30.3027 8.60793 30.8387 7.31597 31.7911 6.36227C32.7434 5.40856 34.0346 4.87068 35.3824 4.86621C38.1857 4.86621 40.4671 7.15238 40.4671 9.95571V22.7012ZM35.3824 43.1341C38.1857 43.1341 40.4671 45.4251 40.4671 48.226C40.4671 51.027 38.1857 53.3155 35.3824 53.3155C34.0346 53.3111 32.7434 52.7732 31.7911 51.8195C30.8387 50.8658 30.3027 49.5738 30.3001 48.226V43.1341H35.3824ZM35.3824 40.5725C34.0342 40.568 32.7426 40.0298 31.7902 39.0755C30.8378 38.1213 30.302 36.8287 30.3001 35.4805C30.3027 34.1328 30.8387 32.8408 31.7911 31.8871C32.7434 30.9334 34.0346 30.3955 35.3824 30.391H48.1134C49.4616 30.3949 50.7534 30.9325 51.7063 31.8862C52.6591 32.84 53.1955 34.1323 53.1981 35.4805C53.1961 36.8292 52.66 38.1221 51.7071 39.0764C50.7542 40.0307 49.462 40.5686 48.1134 40.5725H35.3824Z" fill="#151E2C"/>
</svg>
