<svg width="42" height="26" viewBox="0 0 42 26" fill="none" xmlns="http://www.w3.org/2000/svg">
<path d="M10.6364 9.03971C11.9959 3.60186 15.3945 0.882935 20.8324 0.882935C28.9892 0.882935 30.0088 7.00052 34.0871 8.02012C36.8061 8.69985 39.1851 7.68025 41.2243 4.96132C39.8649 10.3992 36.4662 13.1181 31.0284 13.1181C22.8716 13.1181 21.852 7.00052 17.7736 5.98092C15.0547 5.30119 12.6756 6.32079 10.6364 9.03971ZM0.44043 21.2749C1.79989 15.837 5.19855 13.1181 10.6364 13.1181C18.7932 13.1181 19.8128 19.2357 23.8912 20.2553C26.6101 20.935 28.9892 19.9154 31.0284 17.1965C29.6689 22.6343 26.2702 25.3533 20.8324 25.3533C12.6756 25.3533 11.656 19.2357 7.57761 18.2161C4.85869 17.5364 2.47962 18.556 0.44043 21.2749Z" fill="#44A8B3"/>
</svg>
