<svg width="48" height="47" viewBox="0 0 48 47" fill="none" xmlns="http://www.w3.org/2000/svg">
<g clip-path="url(#clip0_3316_22135)">
<path d="M40.2817 0.305054H7.65461C3.7933 0.305054 0.663086 3.43527 0.663086 7.29658V39.9237C0.663086 43.785 3.7933 46.9152 7.65461 46.9152H40.2817C44.143 46.9152 47.2733 43.785 47.2733 39.9237V7.29658C47.2733 3.43527 44.143 0.305054 40.2817 0.305054Z" fill="#3178C6"/>
<path d="M21.8744 26.1591H27.7006V22.4267H11.4053V26.1591H17.2315V42.8186H21.8744V26.1591ZM29.5213 41.9083C30.2587 42.2906 31.16 42.5728 32.1614 42.764C33.1628 42.9552 34.2552 43.0462 35.3476 43.0462C36.44 43.0462 37.4414 42.9461 38.4428 42.7367C39.4442 42.5273 40.2635 42.1814 40.9918 41.7353C41.7292 41.2528 42.3573 40.6429 42.7215 39.8236C43.0856 39.0043 43.3678 38.0939 43.3678 36.9104C43.3678 36.082 43.2404 35.3628 42.9946 34.7256C42.7488 34.0883 42.3938 33.5421 41.9022 33.0869C41.4379 32.6045 40.9008 32.1766 40.2635 31.8124C39.6263 31.4483 38.898 31.066 38.0787 30.72C37.4778 30.4742 36.9862 30.2375 36.44 30.0008C35.9666 29.7642 35.557 29.5275 35.2566 29.2908C34.9197 29.045 34.6648 28.7901 34.4828 28.5261C34.3007 28.253 34.2097 27.9525 34.2097 27.6157C34.2097 27.3062 34.2907 27.024 34.4555 26.7691C34.6202 26.5142 34.8469 26.3048 35.1382 26.1227C35.4295 25.9407 35.7937 25.8041 36.2307 25.704C36.6585 25.6038 37.1319 25.5583 37.6872 25.5583C38.0696 25.5583 38.4701 25.5865 38.8707 25.6439C39.2894 25.7012 39.7173 25.7895 40.1452 25.9079C40.573 26.0262 40.9918 26.1719 41.4197 26.354C41.8202 26.536 42.1935 26.7454 42.5121 26.9821V22.7034C41.8202 22.4394 41.0555 22.2392 40.2362 22.1117C39.4169 21.9843 38.5065 21.9205 37.4141 21.9205C36.3217 21.9205 35.3203 22.0389 34.3189 22.2665C33.3175 22.4941 32.4982 22.8582 31.7699 23.3589C31.0325 23.8505 30.4954 24.4513 30.0402 25.2706C29.6124 26.0353 29.403 26.9093 29.403 28.0017C29.403 29.3672 29.7944 30.5507 30.5865 31.4611C31.3694 32.4624 32.5892 33.1907 34.1368 33.919C34.765 34.1739 35.3203 34.4288 35.8665 34.6746C36.4127 34.9204 36.8679 35.1753 37.232 35.4393C37.6235 35.7033 37.933 35.9946 38.1424 36.3041C38.37 36.6137 38.4883 36.9778 38.4883 37.3966C38.4883 37.6879 38.4173 37.961 38.2789 38.2159C38.1406 38.4708 37.9239 38.6893 37.6326 38.8713C37.3413 39.0534 36.9862 39.1991 36.5402 39.3083C36.1123 39.4084 35.6298 39.4631 34.9926 39.4631C33.9912 39.4631 32.9898 39.2901 32.0794 38.9442C31.078 38.5982 30.1677 38.0793 29.5213 37.5386V41.9083Z" fill="white"/>
</g>
<defs>
<clipPath id="clip0_3316_22135">
<rect width="46.6102" height="46.6102" fill="white" transform="translate(0.663086 0.305054)"/>
</clipPath>
</defs>
</svg>
