<svg width="20" height="21" viewBox="0 0 20 21" fill="none" xmlns="http://www.w3.org/2000/svg">
<g clip-path="url(#clip0_3357_11682)">
<path d="M10 20.2153C15.5228 20.2153 20 15.7382 20 10.2153C20 4.69248 15.5228 0.215332 10 0.215332C4.47715 0.215332 0 4.69248 0 10.2153C0 15.7382 4.47715 20.2153 10 20.2153Z" fill="#FF3C7D"/>
<path d="M10 0.215332V20.2153C15.5229 20.2153 20 15.7382 20 10.2153C20 4.69248 15.5229 0.215332 10 0.215332Z" fill="#E50058"/>
<path d="M10 17.8716C5.77832 17.8716 2.34375 14.437 2.34375 10.2153C2.34375 5.99365 5.77832 2.55908 10 2.55908C14.2217 2.55908 17.6562 5.99365 17.6562 10.2153C17.6562 14.437 14.2217 17.8716 10 17.8716Z" fill="#FFF5F5"/>
<path d="M10 2.55908V17.8716C14.2217 17.8716 17.6562 14.437 17.6562 10.2153C17.6562 5.99365 14.2217 2.55908 10 2.55908Z" fill="#ECE9E8"/>
<path d="M10 15.5278C7.0707 15.5278 4.6875 13.1446 4.6875 10.2153C4.6875 7.28604 7.0707 4.90283 10 4.90283C12.9293 4.90283 15.3125 7.28604 15.3125 10.2153C15.3125 13.1446 12.9293 15.5278 10 15.5278Z" fill="#FF3C7D"/>
<path d="M10 4.90283V15.5278C12.9293 15.5278 15.3125 13.1446 15.3125 10.2153C15.3125 7.28604 12.9293 4.90283 10 4.90283Z" fill="#E50058"/>
<path d="M10 13.1841C8.36305 13.1841 7.03125 11.8523 7.03125 10.2153C7.03125 8.57838 8.36305 7.24658 10 7.24658C11.637 7.24658 12.9688 8.57838 12.9688 10.2153C12.9688 11.8523 11.637 13.1841 10 13.1841Z" fill="#FFF5F5"/>
<path d="M10 7.24658V13.1841C11.637 13.1841 12.9688 11.8523 12.9688 10.2153C12.9688 8.57838 11.637 7.24658 10 7.24658Z" fill="#ECE9E8"/>
<path d="M19.6038 3.00924L18.4349 2.60936L17.6773 2.53835L17.6063 1.78073L17.2064 0.611862C17.066 0.201627 16.5442 0.0806118 16.2377 0.387213L13.7517 2.87315C13.5936 3.03128 13.5393 3.26557 13.6116 3.47714L14.4087 5.80698L16.7385 6.60401C16.9501 6.67639 17.1844 6.62206 17.3425 6.46393L19.8284 3.97799C20.135 3.67139 20.014 3.1496 19.6038 3.00924Z" fill="#FF9F22"/>
<path d="M19.6033 3.00923L18.4344 2.60935L17.6768 2.53833L14.4082 5.80692L16.738 6.60395C16.9496 6.67634 17.1839 6.622 17.342 6.46388L19.828 3.97794C20.1346 3.67138 20.0136 3.14958 19.6033 3.00923Z" fill="#FF7C48"/>
<path d="M17.606 1.78076L17.8172 2.39818L18.4346 2.60939L10.4143 10.6297C10.1855 10.8585 9.81451 10.8585 9.58568 10.6297C9.35686 10.4008 9.35686 10.0299 9.58568 9.80103L17.606 1.78076Z" fill="#FFF47D"/>
<path d="M17.8175 2.39819L18.4349 2.6094L10.4146 10.6297C10.1857 10.8585 9.81477 10.8585 9.58594 10.6297L17.8175 2.39819Z" fill="#FFD422"/>
</g>
<defs>
<clipPath id="clip0_3357_11682">
<rect width="20" height="20" fill="white" transform="translate(0 0.215332)"/>
</clipPath>
</defs>
</svg>
