<svg width="58" height="58" viewBox="0 0 58 58" fill="none" xmlns="http://www.w3.org/2000/svg">
<path d="M39.3409 27.8061C39.6599 27.7674 39.962 27.7626 40.2424 27.8061C40.4019 27.4339 40.4309 26.7935 40.2883 26.0951C40.0708 25.0583 39.7784 24.4324 39.1742 24.5339C38.5676 24.6306 38.5434 25.3798 38.7634 26.4165C38.8842 26.9965 39.1017 27.4943 39.3409 27.8061ZM34.1475 28.6253C34.5825 28.8138 34.8484 28.9371 34.9474 28.8332C35.0175 28.7655 34.9982 28.6302 34.8943 28.461C34.6146 28.0604 34.2252 27.7491 33.7729 27.5644C33.2897 27.3632 32.7627 27.2899 32.2429 27.3517C31.723 27.4135 31.2279 27.6083 30.8053 27.9173C30.5177 28.1299 30.2446 28.4223 30.2785 28.6012C30.2954 28.6568 30.334 28.7027 30.4355 28.722C30.6748 28.7486 31.5085 28.3257 32.4728 28.2677C33.1543 28.2193 33.7125 28.432 34.1475 28.6253ZM33.2751 29.1208C32.7144 29.2102 32.4027 29.3938 32.2045 29.5727C32.0329 29.7225 31.9314 29.882 31.9314 30.0004L31.9749 30.1019L32.0644 30.1358C32.1924 30.1358 32.4776 30.0246 32.4776 30.0246C33.2606 29.7467 33.7802 29.7781 34.2949 29.8361C34.5777 29.8699 34.7106 29.8844 34.7734 29.7878C34.7904 29.7588 34.8169 29.7032 34.7565 29.6089C34.6212 29.389 34.0533 29.0289 33.2751 29.1208ZM37.5864 30.9478C37.9707 31.1363 38.3912 31.0589 38.5289 30.781C38.6715 30.5031 38.4709 30.1237 38.0867 29.9376C37.7049 29.7467 37.2819 29.8192 37.1442 30.0971C37.0064 30.375 37.207 30.7593 37.5864 30.9478ZM40.0466 28.7945C39.7373 28.7897 39.4811 29.128 39.4714 29.5582C39.4642 29.9859 39.7131 30.3339 40.0249 30.3363C40.3366 30.3412 40.5928 30.0004 40.6 29.5751C40.6073 29.1498 40.3608 28.8018 40.0466 28.7945ZM19.1569 36.4868C19.0796 36.3901 18.9515 36.4167 18.8283 36.4505C18.7413 36.4674 18.6446 36.4916 18.5407 36.4892C18.4366 36.4913 18.3335 36.4679 18.2404 36.4212C18.1474 36.3744 18.0671 36.3057 18.0066 36.2209C17.864 36.0034 17.8713 35.6772 18.0308 35.3074L18.1033 35.1407C18.3546 34.5824 18.7679 33.6448 18.3014 32.753C18.149 32.4383 17.9212 32.166 17.6384 31.9602C17.3555 31.7545 17.0263 31.6218 16.6799 31.5737C16.3523 31.5318 16.0196 31.5685 15.709 31.6807C15.3985 31.7929 15.1191 31.9774 14.8939 32.2189C14.2076 32.9753 14.1037 34.0097 14.2342 34.377C14.2849 34.5123 14.3623 34.5486 14.4154 34.5558C14.5314 34.5728 14.703 34.4858 14.8118 34.1933L14.8456 34.1015C14.8939 33.9468 14.9834 33.6568 15.1308 33.4297C15.3125 33.1518 15.5971 32.9576 15.9221 32.8896C16.247 32.8216 16.5857 32.8855 16.8635 33.0672C17.3469 33.3838 17.5281 33.9734 17.3227 34.5365C17.2164 34.8289 17.0448 35.3848 17.081 35.8415C17.1584 36.7671 17.7335 37.1393 18.241 37.1852C18.7389 37.2021 19.0869 36.9242 19.1763 36.7188C19.227 36.5907 19.1835 36.5158 19.1569 36.4868Z" fill="white"/>
<path d="M47.9005 34.7927C47.8788 34.7226 47.7531 34.2707 47.5864 33.7294L47.2384 32.8014C47.9174 31.7791 47.9295 30.8705 47.8401 30.3533C47.7381 29.688 47.4226 29.0739 46.9411 28.6036C46.4046 28.043 45.305 27.463 43.7632 27.0304L42.9536 26.8056C42.9488 26.7694 42.9101 24.8965 42.8787 24.0917C42.8521 23.5117 42.8038 22.603 42.521 21.7089C42.1827 20.4957 41.6003 19.442 40.868 18.7581C42.8859 16.6701 44.1426 14.367 44.1402 12.3926C44.1329 8.59605 39.4688 7.44088 33.7195 9.82371L32.5039 10.3409C32.4991 10.336 30.3024 8.18038 30.2709 8.1538C23.7121 2.43596 3.2236 25.2155 9.7776 30.7472L11.2107 31.958C10.8236 32.9949 10.6861 34.1084 10.8095 35.2084C10.9666 36.7333 11.7496 38.1905 13.0208 39.3191C14.2291 40.3873 15.8217 41.0688 17.3611 41.0664C19.9107 46.9437 25.7349 50.5445 32.5644 50.75C39.8917 50.9675 46.0397 47.5285 48.6207 41.3515C48.7874 40.919 49.5028 38.9663 49.5028 37.2432C49.5004 35.508 48.5216 34.7903 47.9005 34.7927ZM17.9218 39.4134C17.6985 39.4533 17.4718 39.4703 17.2451 39.4641C15.0314 39.4013 12.6414 37.41 12.4045 35.0489C12.1411 32.4389 13.4751 30.4282 15.8386 29.9545C16.1189 29.8941 16.4621 29.8627 16.8294 29.8796C18.1538 29.957 20.1016 30.972 20.5487 33.855C20.945 36.4046 20.3167 39.0074 17.9218 39.4134ZM15.4544 28.3885C14.0175 28.6541 12.7407 29.4689 11.8946 30.6602C11.4185 30.2639 10.5364 29.5002 10.3818 29.2005C9.11544 26.7984 11.7617 22.1245 13.6129 19.4855C18.1779 12.9654 25.3361 8.03296 28.6518 8.9223C29.1883 9.07696 30.9718 11.148 30.9718 11.148C30.9718 11.148 27.6609 12.9823 24.5869 15.544C20.452 18.734 17.3224 23.3643 15.4544 28.3885ZM38.6809 38.437C38.7059 38.4266 38.7266 38.408 38.7398 38.3843C38.7529 38.3607 38.7577 38.3333 38.7534 38.3065C38.7519 38.2904 38.7472 38.2748 38.7396 38.2605C38.7319 38.2462 38.7214 38.2336 38.7088 38.2235C38.6962 38.2134 38.6817 38.2059 38.6661 38.2014C38.6505 38.197 38.6342 38.1958 38.6181 38.1978C38.6181 38.1978 35.1526 38.7101 31.878 37.5139C32.2333 36.3563 33.1854 36.7695 34.6185 36.888C36.8462 37.0194 39.0802 36.7777 41.2281 36.1726C42.7095 35.7449 44.6574 34.9063 46.1702 33.7125C46.6825 34.8362 46.8614 36.0687 46.8614 36.0687C46.8614 36.0687 47.2553 35.9986 47.5864 36.2016C47.9005 36.395 48.1277 36.7937 47.973 37.8232C47.6516 39.7517 46.8348 41.3153 45.4549 42.7556C44.5962 43.6874 43.5729 44.4526 42.4364 45.0128C41.805 45.3455 41.147 45.6251 40.4693 45.849C35.2759 47.543 29.9592 45.6798 28.2458 41.6754C28.1077 41.3687 27.993 41.052 27.9026 40.728C27.1728 38.089 27.7914 34.928 29.7272 32.9319V32.9295C29.8504 32.8038 29.9737 32.6564 29.9737 32.4679C29.9737 32.3132 29.8722 32.1465 29.7876 32.0256C29.1109 31.0445 26.7595 29.3697 27.2332 26.129C27.5691 23.7993 29.6064 22.1608 31.5059 22.2575L31.9892 22.2865C32.8109 22.3348 33.5286 22.4387 34.2053 22.4701C35.3411 22.516 36.3585 22.3517 37.5669 21.3464C37.9753 21.0032 38.3015 20.7108 38.8525 20.619C38.9105 20.6045 39.0555 20.5585 39.3431 20.5682C39.638 20.5801 39.9243 20.6711 40.172 20.8316C41.1387 21.4745 41.2764 23.0356 41.3296 24.1787C41.3586 24.8288 41.4384 26.4069 41.4625 26.8564C41.5254 27.8907 41.7984 28.0381 42.3446 28.217C42.6564 28.3233 42.9439 28.3958 43.3669 28.519C44.6453 28.8743 45.4089 29.244 45.8874 29.7105C46.1354 29.9507 46.2954 30.2673 46.3418 30.6095C46.4989 31.7139 45.4887 33.0769 42.8255 34.3142C39.911 35.6651 36.3754 36.0083 33.9346 35.7352L33.0791 35.6385C31.1216 35.3775 30.0124 37.9005 31.1844 39.6285C31.9409 40.7425 33.9974 41.4675 36.0589 41.4675C40.7786 41.4724 44.4084 39.4569 45.7618 37.712L45.8681 37.5598C45.9309 37.4583 45.8802 37.4075 45.7956 37.4607C44.696 38.2147 39.795 41.2114 34.5557 40.3124C34.5557 40.3124 33.9177 40.206 33.3377 39.9789C32.8785 39.8049 31.9094 39.3554 31.7934 38.3645C36.0154 39.6768 38.6809 38.4395 38.6809 38.437ZM23.8909 19.4614C25.5149 17.586 27.5135 15.9524 29.3067 15.0389C29.3671 15.005 29.4324 15.0751 29.3985 15.1307C29.1786 15.5165 29.0096 15.9291 28.8959 16.3584C28.8814 16.4236 28.9514 16.4768 29.007 16.4357C30.1235 15.6769 32.0617 14.8625 33.763 14.761C33.7796 14.7581 33.7966 14.7611 33.8112 14.7694C33.8258 14.7777 33.8371 14.7909 33.8431 14.8066C33.8491 14.8222 33.8494 14.8395 33.8441 14.8555C33.8387 14.8714 33.828 14.885 33.8138 14.8939C33.5319 15.1101 33.2799 15.3629 33.0646 15.6455C33.0308 15.6938 33.0622 15.7639 33.1226 15.7639C34.3164 15.7711 36.0009 16.1868 37.0956 16.803C37.1681 16.8465 37.1149 16.9891 37.0352 16.9698C35.3725 16.5904 32.6586 16.3004 29.8359 16.9891C27.3129 17.603 25.3893 18.5503 23.99 19.5725C23.9175 19.6209 23.8329 19.5266 23.8909 19.4614Z" fill="white"/>
</svg>
