<svg width="146" height="80" viewBox="0 0 146 80" fill="none" xmlns="http://www.w3.org/2000/svg">
<rect width="146" height="80" fill="#2A2E34"/>
<g id="HomePage  (Light)">
<g clip-path="url(#clip0_3309_13)">
<rect x="-121" y="-8353" width="393" height="8657.09" rx="20" fill="white"/>
<g id="cta">
<rect width="393" height="407" transform="translate(-121 -267.909)" fill="white"/>
<g id="CTA">
<g clip-path="url(#clip1_3309_13)">
<rect x="-97" y="-219.909" width="345" height="311" rx="20" fill="#FFBE62"/>
<g id="CTA_2">
<mask id="mask0_3309_13" style="mask-type:alpha" maskUnits="userSpaceOnUse" x="-86" y="-186" width="278" height="267">
<path id="Rectangle 4402" d="M-85.5 60.1816C-85.5 70.9512 -76.7696 79.6816 -66 79.6816H172C182.77 79.6816 191.5 70.9512 191.5 60.1816V-165.818C191.5 -176.588 182.77 -185.318 172 -185.318H-66C-76.7696 -185.318 -85.5 -176.588 -85.5 -165.818V60.1816Z" fill="#4A3AFF" stroke="#EFF0F7"/>
</mask>
<g mask="url(#mask0_3309_13)">
<path id="Ellipse 117" opacity="0.2" d="M-3.20749e-06 79.1816C-2.90059e-06 68.8072 1.8882 58.5343 5.55679 48.9496C9.22539 39.3649 14.6025 30.656 21.3812 23.3202C28.1599 15.9844 36.2073 10.1653 45.0641 6.19515C53.9209 2.22503 63.4135 0.181642 73 0.181644C82.5865 0.181646 92.0791 2.22504 100.936 6.19517C109.793 10.1653 117.84 15.9844 124.619 23.3202C131.397 30.656 136.775 39.3649 140.443 48.9497C144.112 58.5344 146 68.8072 146 79.1816L73 79.1816L-3.20749e-06 79.1816Z" fill="white"/>
<rect id="Rectangle 4404" opacity="0.1" width="157" height="147" transform="matrix(-4.06011e-08 -1 -1 4.70599e-08 146 0.181641)" fill="white"/>
</g>
</g>
<g id="CTA - CONTACT US">
<rect x="-79" y="-33" width="310" height="47" rx="23.5" fill="#0252CD"/>
</g>
</g>
<rect x="-96.5" y="-219.409" width="344" height="310" rx="19.5" stroke="#FFBE62"/>
</g>
</g>
</g>
</g>
<defs>
<clipPath id="clip0_3309_13">
<rect x="-121" y="-8353" width="393" height="8657.09" rx="20" fill="white"/>
</clipPath>
<clipPath id="clip1_3309_13">
<rect x="-97" y="-219.909" width="345" height="311" rx="20" fill="white"/>
</clipPath>
</defs>
</svg>
