<svg width="51" height="50" viewBox="0 0 51 50" fill="none" xmlns="http://www.w3.org/2000/svg">
<path d="M47.0339 37.3517C45.4334 37.7503 44.4434 37.3692 43.5552 36.063L37.2384 27.5039L36.3254 26.3189L28.9486 36.0912C28.1057 37.2668 27.2216 37.7785 25.6486 37.3624L35.0948 24.944L26.3003 13.7268C27.8128 13.4386 28.8578 13.5854 29.7859 14.9118L36.3378 23.5772L42.9378 14.9589C43.7834 13.7833 44.6923 13.3363 46.2103 13.7699L42.8003 18.1975L38.1803 24.0889C37.6303 24.7622 37.7059 25.2228 38.2119 25.8732L47.0339 37.3517ZM3.04494 24.7366L3.81769 21.0146C5.92144 13.6487 14.5427 10.5878 20.4882 15.1394C23.9628 17.8164 24.8263 21.6031 24.6544 25.8449H5.06894C4.77469 33.4802 10.3861 38.0883 17.5402 35.7371C20.0496 34.9116 21.5277 32.9873 22.2674 30.5796C22.6428 29.373 23.2643 29.1845 24.4221 29.5292C23.8308 32.5402 22.4971 35.0557 19.6783 36.6299C15.4667 38.9865 9.45519 38.2243 6.29269 34.9493C4.40894 33.0493 3.63069 30.6415 3.28144 28.0668C3.22644 27.6413 3.11644 27.2359 3.03394 26.8279C3.04127 26.1313 3.04494 25.4346 3.04494 24.738V24.7366ZM5.10469 24.2249H22.8037C22.6882 18.7038 19.1778 14.7825 14.3804 14.7488C9.11419 14.7084 5.33294 18.5369 5.10469 24.2249Z" fill="#778295"/>
</svg>
