<svg viewBox="0 0 391.8321 45.9351" width="420px" height="420px" xmlns="http://www.w3.org/2000/svg"  ><g opacity="1" >
</g><g opacity="1" >
<svg width="420px" height="420px" x="-15" y="-90" version="1.1"  viewBox="7.402999877929688 19.700000762939453 82.47899627685547 105.598995208740234">
  <g transform="matrix(1 0 0 1 0 0)" class="icon1"><path d="M88.85,47.507L62.074,20.732c-1.376-1.376-3.607-1.376-4.984,0L30.314,47.507c-0.661,0.661-1.032,1.558-1.032,2.492  c0,0.934,0.372,1.831,1.032,2.492l11.771,11.772l4.984-4.984L37.79,50l10.853-10.853L59.495,50L37.703,71.791L15.911,50  l21.792-21.792l4.453,4.453l4.984-4.983l-6.945-6.945c-1.376-1.376-3.607-1.376-4.983,0L8.436,47.507  C7.775,48.168,7.403,49.065,7.403,50c0,0.934,0.372,1.831,1.032,2.492l26.776,26.776c0.66,0.66,1.557,1.031,2.491,1.031  s1.831-0.371,2.492-1.031l8.447-8.447l8.447,8.447c0.661,0.66,1.558,1.031,2.492,1.031s1.831-0.371,2.492-1.031L88.85,52.491  c0.661-0.661,1.032-1.558,1.032-2.492C89.882,49.065,89.511,48.168,88.85,47.507z M59.582,71.791l-5.956-5.955l13.345-13.345  c0.661-0.661,1.032-1.558,1.032-2.492c0-0.935-0.371-1.831-1.032-2.492L53.626,34.164l5.956-5.956L81.374,50L59.582,71.791z"></path></g>
</svg>
</g></svg>