<svg width="58" height="58" viewBox="0 0 58 58" fill="none" xmlns="http://www.w3.org/2000/svg">
<path d="M52.2817 26.9167C52.2491 26.6833 52.2006 26.4524 52.1367 26.2255L51.6848 26.7959C51.6064 25.7535 51.4218 24.7219 51.1338 23.717C50.7731 22.4578 50.2949 21.2353 49.7056 20.0655C49.346 19.2826 48.9088 18.5377 48.4006 17.8421C48.1371 17.4313 47.91 17.1268 47.8665 17.0639C46.9916 15.6405 46.0129 14.7754 44.8481 13.1465C44.1101 11.8956 43.6064 10.5206 43.3618 9.08895C43.0355 9.94785 42.7904 10.8354 42.6296 11.74C41.4623 10.5583 40.4231 9.69553 39.8069 9.13003C36.745 6.27112 37.1171 4.8042 37.1171 4.8042C37.1171 4.8042 31.4041 11.1721 33.874 17.7986C34.7299 20.0544 36.2081 22.0211 38.137 23.4705C40.5271 25.4353 43.096 26.9795 44.4421 30.9646C43.3616 28.8711 41.7144 27.1234 39.6885 25.921C40.2999 27.3759 40.6068 28.8984 40.5851 30.474C40.5841 31.893 40.3035 33.2979 39.7592 34.6084C39.2149 35.9188 38.4177 37.1091 37.4131 38.1113C36.4085 39.1134 35.2162 39.9077 33.9044 40.4488C32.5926 40.9898 31.187 41.267 29.7681 41.2645C28.9671 41.2691 28.1682 41.1807 27.3876 41.001C26.4568 40.8246 25.556 40.5162 24.7124 40.0851C23.4439 39.3318 22.346 38.3228 21.4886 37.1223V37.1054C21.5468 37.1311 21.6075 37.1505 21.6698 37.1634C22.1217 37.3253 22.5688 37.4485 23.0401 37.5331C24.8695 37.9166 26.7742 37.6935 28.4655 36.8975C30.1765 35.9405 31.2181 35.2421 32.0518 35.5104C32.8928 35.7738 33.5211 34.9787 32.9532 34.1449C32.4535 33.4979 31.7862 32.9999 31.0237 32.7051C30.2611 32.4103 29.4324 32.3299 28.6274 32.4726C26.9091 32.7167 25.3407 33.9202 23.1174 32.7554C22.9555 32.678 22.8346 32.5959 22.6921 32.5113C22.5471 32.4098 23.1802 32.6345 23.0159 32.533C22.5249 32.2924 22.0545 32.012 21.6094 31.6945C21.5876 31.6727 21.9598 31.7984 21.9139 31.7742C21.3323 31.3799 20.8332 30.8759 20.4446 30.2904C20.2521 29.9311 20.1435 29.5329 20.1268 29.1257C20.11 28.7185 20.1856 28.3128 20.3479 27.9389C20.5565 27.5644 20.8778 27.265 21.2662 27.0835L21.7302 27.3251C21.7302 27.3251 21.5876 27.0835 21.5248 26.9602C21.549 26.9409 21.5707 26.9602 21.6094 26.9409C21.8559 27.0424 22.4045 27.3251 22.709 27.5112C22.913 27.6182 23.0887 27.7723 23.2213 27.9607C23.2213 27.9607 23.3252 27.9196 23.2431 27.6997C23.1437 27.4326 22.955 27.208 22.709 27.0641H22.7525C22.9772 27.1874 23.1826 27.3106 23.3832 27.4677C23.5669 27.0182 23.6708 26.5784 23.6539 26.1071C23.6683 25.8506 23.633 25.5938 23.55 25.3507C23.4654 25.1888 23.5911 25.1259 23.7312 25.2903C23.7085 25.1624 23.6669 25.0386 23.608 24.9229C23.608 24.9229 23.6901 24.7997 23.7312 24.7731C23.8351 24.6765 23.9342 24.5749 24.0599 24.5145C24.768 24.0674 25.5075 23.676 26.2832 23.369C26.7058 23.2034 27.1211 23.0195 27.5278 22.818C27.6897 22.7165 27.8347 22.615 27.9773 22.4894C28.509 22.0423 28.857 21.4309 28.9754 20.7542C28.9996 20.6575 28.9996 20.5754 28.9996 20.4956V20.3289C28.9174 19.9809 28.3253 19.7368 25.2465 19.4299C24.7147 19.3486 24.2199 19.1085 23.827 18.7411C23.4342 18.3736 23.1615 17.896 23.0449 17.3709V17.3878C22.9994 17.5038 22.9582 17.6215 22.9216 17.7406C22.9603 17.6125 23.0014 17.5135 23.0449 17.3878V17.3709C23.6342 15.8352 24.6897 14.5227 26.0633 13.6178C26.1382 13.5574 25.7588 13.6347 25.8386 13.5767C26.0851 13.4535 26.3485 13.3278 26.6336 13.2263C26.7762 13.1828 26.0416 12.9024 25.3891 12.9604C24.9964 12.9882 24.6106 13.078 24.246 13.2263C24.4079 13.1079 24.855 12.9411 24.7535 12.9411C23.9249 13.0872 23.1303 13.3846 22.4093 13.8184C22.4093 13.7386 22.4335 13.6734 22.4528 13.6178C21.8799 13.8587 21.3801 14.2453 21.0028 14.7391V14.4684C20.7485 14.6758 20.5102 14.902 20.2899 15.1451H20.2706C18.5739 14.4883 16.7239 14.3339 14.9418 14.7004L14.9225 14.6787H14.9418C14.5705 14.3824 14.254 14.0233 14.0066 13.6178L13.9824 13.6347L13.9461 13.596C13.8181 13.4317 13.7214 13.2287 13.5909 13.0015C13.4942 12.8565 13.4121 12.6729 13.3106 12.494C13.3106 12.494 13.3106 12.4747 13.2912 12.4747C13.2671 12.4747 13.2284 12.6608 13.2115 12.5931C12.8972 11.7827 12.7501 10.9171 12.7789 10.0484H12.7596C12.2478 10.3865 11.8661 10.8883 11.6769 11.4718C11.5778 11.6796 11.515 11.7811 11.4546 11.9044V11.8367L11.5126 11.5346C11.4981 11.5564 11.4981 11.5757 11.4715 11.595C11.3271 11.7638 11.2052 11.9507 11.109 12.1509C11.0031 12.3361 10.9195 12.5332 10.8601 12.7381V12.6366C10.8601 12.5545 10.8818 12.4312 10.8601 12.4747L10.8383 12.5303C10.1791 13.9842 9.7659 15.5375 9.61548 17.1268C9.57681 17.4119 9.57681 17.6778 9.57681 17.9412V17.9847C9.11042 18.4935 8.69443 19.0463 8.33464 19.6353C7.14924 21.6358 6.26799 23.8014 5.71981 26.0612C6.10889 25.2057 6.57531 24.3671 7.12873 23.5938C6.07372 26.2501 5.53327 29.0828 5.53614 31.941C5.71981 31.1048 5.94456 30.2879 6.20798 29.4711C6.04684 32.8484 6.6991 36.2149 8.10989 39.2876C10.0027 43.5395 13.1561 47.1072 17.1434 49.5077C18.7538 50.61 20.5208 51.4638 22.3851 52.0404C22.6316 52.1201 22.8999 52.2192 23.1416 52.3038C23.0594 52.2603 22.999 52.2192 22.9192 52.2023C25.1294 52.8611 27.4231 53.1972 29.7294 53.2004C37.9146 53.2004 40.6068 50.078 40.8702 49.7735C41.2569 49.4086 41.6025 48.9736 41.8272 48.4661C41.9916 48.4081 42.1341 48.3453 42.2985 48.2631L42.3976 48.2244C42.5208 48.1616 42.5788 48.1423 42.5788 48.1423C43.8185 47.5614 44.9844 46.8345 46.0516 45.9769C47.6368 44.827 48.7703 43.1592 49.2561 41.262C49.5581 40.5709 49.5581 39.812 49.3141 39.1015C49.4349 38.8985 49.5412 38.7125 49.5581 38.6714C51.3175 35.852 52.3158 32.6247 52.4557 29.3044V29.024C52.4605 28.3178 52.4022 27.6126 52.2817 26.9167Z" fill="#428DFF"/>
</svg>
