<svg width="51" height="50" viewBox="0 0 51 50" fill="none" xmlns="http://www.w3.org/2000/svg">
<path d="M4.85994 27.2081C3.64044 25.9886 3.64044 24.0114 4.85994 22.7919L23.6122 4.03963C24.8317 2.82013 26.8089 2.82013 28.0284 4.03963L46.7806 22.7919C48.0002 24.0114 48.0002 25.9886 46.7806 27.2081L28.0284 45.9603C26.8089 47.1798 24.8317 47.1798 23.6122 45.9603L4.85994 27.2081Z" fill="#778295"/>
<path d="M19.803 7.90857L17.9041 9.80754L22.8086 14.7121C22.6101 15.1377 22.4994 15.6125 22.4994 16.1131C22.4994 17.5343 23.3923 18.747 24.6478 19.2206V31.2184C23.3923 31.692 22.4994 32.9046 22.4994 34.3259C22.4994 36.1596 23.9859 37.6462 25.8197 37.6462C27.6534 37.6462 29.14 36.1596 29.14 34.3259C29.14 33.0374 28.4061 31.9203 27.3334 31.3699V19.237L32.0217 23.9253C31.833 24.3423 31.728 24.8053 31.728 25.2928C31.728 27.1265 33.2145 28.6131 35.0483 28.6131C36.882 28.6131 38.3686 27.1265 38.3686 25.2928C38.3686 23.459 36.882 21.9724 35.0483 21.9724C34.6919 21.9724 34.3487 22.0285 34.0269 22.1324L28.9917 17.0973C29.0881 16.7864 29.14 16.4557 29.14 16.1131C29.14 14.2793 27.6534 12.7927 25.8197 12.7927C25.477 12.7927 25.1466 12.8446 24.8355 12.941L19.803 7.90857Z" fill="white"/>
</svg>
