<svg width="51" height="50" viewBox="0 0 51 50" fill="none" xmlns="http://www.w3.org/2000/svg">
<g clip-path="url(#clip0_3309_753)">
<path fill-rule="evenodd" clip-rule="evenodd" d="M25.5568 0.520874C11.7521 0.520874 0.55835 11.7574 0.55835 25.6215C0.55835 36.709 7.72084 46.1166 17.6568 49.4359C18.9068 49.6665 19.363 48.8915 19.363 48.2264C19.363 47.6303 19.3411 46.0522 19.3286 43.958C12.3739 45.4749 10.9068 40.5932 10.9068 40.5932C9.77086 37.6942 8.13179 36.9224 8.13179 36.9224C5.86148 35.3647 8.30365 35.396 8.30365 35.396C10.8115 35.5733 12.1318 37.9829 12.1318 37.9829C14.363 41.8183 17.9834 40.7108 19.4084 40.0676C19.6349 38.4456 20.2818 37.3397 20.9958 36.7122C15.4443 36.0785 9.60834 33.9262 9.60834 24.3086C9.60834 21.5681 10.5818 19.3279 12.1818 17.5726C11.924 16.9373 11.0662 14.3866 12.4256 10.9307C12.4256 10.9307 14.5255 10.2562 19.3005 13.5034C21.2958 12.9465 23.4334 12.6688 25.5599 12.6578C27.6834 12.6688 29.8224 12.9465 31.8193 13.5034C36.5912 10.2562 38.6865 10.9307 38.6865 10.9307C40.0506 14.3866 39.1927 16.9373 38.9349 17.5726C40.538 19.3279 41.5052 21.5681 41.5052 24.3086C41.5052 33.9498 35.6599 36.0722 30.0912 36.6934C30.988 37.4683 31.7881 38.9994 31.7881 41.3414C31.7881 44.6969 31.7568 47.4028 31.7568 48.2264C31.7568 48.8978 32.2068 49.679 33.4756 49.4327C43.4021 46.1071 50.5583 36.7059 50.5583 25.6215C50.5583 11.7574 39.3646 0.520874 25.5568 0.520874Z" fill="#778295"/>
</g>
<defs>
<clipPath id="clip0_3309_753">
<rect width="50" height="50" fill="white" transform="translate(0.55835)"/>
</clipPath>
</defs>
</svg>
