<svg width="24" height="25" viewBox="0 0 24 25" fill="none" xmlns="http://www.w3.org/2000/svg">
<g clip-path="url(#clip0_3313_8203)">
<path fill-rule="evenodd" clip-rule="evenodd" d="M12 0.5C5.3724 0.5 0 5.8808 0 12.5204C0 17.8304 3.438 22.3364 8.2068 23.9252C8.8068 24.0356 9.0252 23.6648 9.0252 23.3456C9.0252 23.0612 9.0156 22.304 9.0096 21.302C5.6712 22.028 4.9668 19.6904 4.9668 19.6904C4.422 18.3008 3.6348 17.9312 3.6348 17.9312C2.5452 17.1872 3.7176 17.2016 3.7176 17.2016C4.9212 17.2856 5.5548 18.44 5.5548 18.44C6.6252 20.276 8.364 19.7456 9.0468 19.4384C9.1572 18.662 9.4668 18.1328 9.81 17.8328C7.146 17.5292 4.344 16.4972 4.344 11.8916C4.344 10.58 4.812 9.506 5.5788 8.666C5.4552 8.3624 5.0436 7.1396 5.6964 5.486C5.6964 5.486 6.7044 5.162 8.9964 6.7172C9.97532 6.45022 10.9853 6.31423 12 6.3128C13.02 6.3176 14.046 6.4508 15.0048 6.7172C17.2956 5.162 18.3012 5.4848 18.3012 5.4848C18.9564 7.1396 18.5436 8.3624 18.4212 8.666C19.1892 9.506 19.6548 10.58 19.6548 11.8916C19.6548 16.5092 16.848 17.5256 14.1756 17.8232C14.6064 18.194 14.9892 18.9272 14.9892 20.0492C14.9892 21.6548 14.9748 22.952 14.9748 23.3456C14.9748 23.6672 15.1908 24.0416 15.8004 23.924C18.19 23.1225 20.2672 21.5904 21.7386 19.5441C23.2099 17.4977 24.001 15.0408 24 12.5204C24 5.8808 18.6264 0.5 12 0.5Z" fill="#778295"/>
</g>
<defs>
<clipPath id="clip0_3313_8203">
<rect width="24" height="24" fill="white" transform="translate(0 0.5)"/>
</clipPath>
</defs>
</svg>
