<svg width="1270" height="358" viewBox="0 0 1270 358" fill="none" xmlns="http://www.w3.org/2000/svg">
<path opacity="0.2" d="M897.962 10.5216C897.962 23.3064 900.301 35.966 904.846 47.7777C909.39 59.5893 916.051 70.3216 924.448 79.3619C932.845 88.4021 942.813 95.5732 953.785 100.466C964.756 105.358 976.515 107.876 988.39 107.876C1000.26 107.876 1012.02 105.358 1023 100.466C1033.97 95.5732 1043.93 88.4021 1052.33 79.3619C1060.73 70.3216 1067.39 59.5893 1071.93 47.7777C1076.48 35.966 1078.82 23.3064 1078.82 10.5216L988.39 10.5216L897.962 10.5216Z" fill="white"/>
<path opacity="0.1" d="M897.149 171.342C897.149 186.336 894.406 201.184 889.076 215.037C883.746 228.89 875.934 241.477 866.086 252.079C856.238 262.682 844.547 271.092 831.679 276.83C818.812 282.568 805.021 285.521 791.094 285.521C777.166 285.521 763.376 282.568 750.508 276.83C737.641 271.092 725.95 262.682 716.102 252.079C706.253 241.477 698.442 228.889 693.112 215.037C687.782 201.184 685.039 186.336 685.039 171.342L791.094 171.342H897.149Z" fill="white"/>
<rect opacity="0.1" x="1078.79" y="107.349" width="195.404" height="181.503" transform="rotate(90 1078.79 107.349)" fill="white"/>
<ellipse opacity="0.07" cx="1173.95" cy="292.692" rx="102.3" ry="95.0209" transform="rotate(90 1173.95 292.692)" fill="white"/>
<path opacity="0.1" d="M0.519073 9.22996C22.6446 9.22997 44.5535 13.9218 64.9949 23.0375C85.4362 32.1532 104.01 45.5143 119.655 62.3579C135.3 79.2015 147.71 99.1978 156.177 121.205C164.644 143.212 169.002 166.8 169.002 190.62C169.002 214.441 164.644 238.028 156.177 260.035C147.71 282.042 135.3 302.039 119.655 318.882C104.01 335.726 85.4362 349.087 64.9948 358.203C44.5535 367.318 22.6446 372.01 0.518998 372.01L0.519059 190.62L0.519073 9.22996Z" fill="white"/>
<rect opacity="0.2" x="1269.51" y="-13.75" width="205.33" height="190.722" transform="rotate(90 1269.51 -13.75)" fill="white"/>
<path opacity="0.2" d="M1247.11 9.43506L1157.45 103.319L1078.82 190.62L1078.82 9.43505L1247.11 9.43506Z" fill="white"/>
</svg>
