<svg width="51" height="50" viewBox="0 0 51 50" fill="none" xmlns="http://www.w3.org/2000/svg">
<path d="M7.55005 44.9219L3.54614 0H47.5891L43.5852 44.9219L25.5188 50" fill="#778295"/>
<path d="M25.6165 46.0938L40.1672 42.0898L43.5852 3.61328H25.6165" fill="#778295"/>
<path d="M25.6165 20.3125H18.2922L17.804 14.6484H25.6165V9.17969H11.7493L13.2141 25.8789H25.6165V20.3125ZM25.5188 34.668L19.3665 33.0078L18.9758 28.6133H13.5071L14.1907 37.3047L25.5188 40.4297V34.668Z" fill="white"/>
<path d="M25.5188 20.3125V25.8789H32.3547L31.6711 33.0078L25.5188 34.668V40.4297L36.8469 37.3047L38.4094 20.3125H25.5188ZM25.5188 9.17969V14.6484H38.8977L39.386 9.17969H25.5188Z" fill="white"/>
</svg>
