<svg width="30" height="30" viewBox="0 0 30 30" fill="none" xmlns="http://www.w3.org/2000/svg">
<rect x="30" y="30" width="30" height="30" rx="15" transform="rotate(180 30 30)" fill="url(#paint0_angular_3357_3085)"/>
<path d="M16.635 16.0692V14.4342C16.635 14.2102 16.5913 13.9994 16.5039 13.8019C16.4204 13.6006 16.3046 13.4259 16.1565 13.2778C16.0083 13.1297 15.8336 13.0139 15.6324 12.9303C15.4349 12.843 15.2241 12.7993 15 12.7993C14.776 12.7993 14.5633 12.843 14.362 12.9303C14.1645 13.0139 13.9917 13.1297 13.8436 13.2778C13.6955 13.4259 13.5778 13.6006 13.4904 13.8019C13.4069 13.9994 13.3651 14.2102 13.3651 14.4342V16.0692H16.635ZM18.2699 19.3333H16.635V17.6984H13.3651L13.3651 19.3333H11.7359L11.7359 14.4342C11.7359 13.9823 11.8213 13.5589 11.9922 13.1639C12.1631 12.7651 12.3948 12.4176 12.6872 12.1214C12.9834 11.8252 13.329 11.5916 13.724 11.4207C14.1228 11.2498 14.5481 11.1644 15 11.1644C15.452 11.1644 15.8754 11.2498 16.2704 11.4207C16.6691 11.5916 17.0166 11.8252 17.3129 12.1214C17.6091 12.4176 17.8427 12.7651 18.0135 13.1639C18.1844 13.5589 18.2699 13.9823 18.2699 14.4342V19.3333Z" fill="white"/>
<defs>
<radialGradient id="paint0_angular_3357_3085" cx="0" cy="0" r="1" gradientUnits="userSpaceOnUse" gradientTransform="translate(45 52.6667) rotate(90) scale(7.33333)">
<stop stop-color="#0252CD"/>
<stop offset="1" stop-color="#0252CD" stop-opacity="0.33"/>
</radialGradient>
</defs>
</svg>
