<svg width="51" height="50" viewBox="0 0 51 50" fill="none" xmlns="http://www.w3.org/2000/svg">
<g clip-path="url(#clip0_3309_768)">
<path d="M25.7717 50C39.5788 50 50.7717 38.8071 50.7717 25C50.7717 11.1929 39.5788 0 25.7717 0C11.9646 0 0.771729 11.1929 0.771729 25C0.771729 38.8071 11.9646 50 25.7717 50Z" fill="#778295"/>
<path d="M32.4539 21.9453C30.8748 14.9761 27.1429 12.6846 26.741 11.8091C26.3016 11.1914 25.8563 10.0928 25.8563 10.0928C25.8489 10.0742 25.8372 10.0415 25.8235 10.0098C25.7781 10.6274 25.7547 10.8657 25.1707 11.4888C24.2664 12.1958 19.6268 16.0889 19.2493 24.0068C18.8973 31.3916 24.5838 35.792 25.3528 36.353L25.4402 36.415V36.4097C25.4451 36.4468 25.6844 38.1675 25.8523 39.9907H26.4549C26.5963 38.7019 26.8082 37.4219 27.0897 36.1562L27.1385 36.1245C27.4825 35.8779 27.8105 35.6096 28.1204 35.3213L28.1556 35.2896C29.7903 33.7793 32.7293 30.2861 32.7005 24.7168C32.6944 23.7878 32.6119 22.8608 32.4539 21.9453ZM25.7884 32.1836C25.7884 32.1836 25.7884 21.8262 26.1302 21.8281C26.3968 21.8281 26.742 35.188 26.742 35.188C26.2674 35.1309 25.7884 32.9893 25.7884 32.1836Z" fill="white"/>
</g>
<defs>
<clipPath id="clip0_3309_768">
<rect width="50" height="50" fill="white" transform="translate(0.771729)"/>
</clipPath>
</defs>
</svg>
