<svg width="51" height="50" viewBox="0 0 51 50" fill="none" xmlns="http://www.w3.org/2000/svg">
<path d="M23.5035 0.0134552C23.396 0.0232289 23.0539 0.057437 22.746 0.0818713C15.6443 0.722051 8.99229 4.55336 4.77919 10.442C2.43315 13.7162 0.932658 17.4303 0.365698 21.3642C0.165307 22.7374 0.140869 23.143 0.140869 25.0049C0.140869 26.8668 0.165307 27.2724 0.365698 28.6456C1.72445 38.0333 8.40578 45.9207 17.4674 48.843C19.09 49.3659 20.8007 49.7227 22.746 49.9377C23.5035 50.0208 26.7782 50.0208 27.5358 49.9377C30.8936 49.5663 33.7381 48.7355 36.5436 47.3037C36.9737 47.0838 37.0568 47.0251 36.9982 46.9762C36.9591 46.9469 35.1262 44.4888 32.9268 41.5176L28.9287 36.1176L23.919 28.7043C21.1624 24.6286 18.8945 21.2958 18.875 21.2958C18.8554 21.2909 18.8359 24.5846 18.8261 28.6065C18.8114 35.6485 18.8066 35.9319 18.7186 36.0981C18.5915 36.3375 18.4938 36.4353 18.2885 36.5428C18.1321 36.621 17.9952 36.6356 17.2572 36.6356H16.4116L16.1868 36.4939C16.0402 36.4011 15.9327 36.2789 15.8593 36.1372L15.7567 35.9173L15.7665 26.1191L15.7811 16.316L15.9327 16.1255C16.0109 16.0228 16.177 15.8909 16.2943 15.8274C16.4947 15.7296 16.5729 15.7198 17.4185 15.7198C18.4156 15.7198 18.5817 15.7589 18.8408 16.0424C18.9141 16.1206 21.6267 20.206 24.8721 25.1271C28.1174 30.0481 32.5553 36.7676 34.7352 40.0662L38.6941 46.0624L38.8945 45.9305C40.6687 44.7772 42.5456 43.1352 44.0314 41.4248C47.1937 37.7938 49.2318 33.3663 49.916 28.6456C50.1164 27.2724 50.1409 26.8668 50.1409 25.0049C50.1409 23.143 50.1164 22.7374 49.916 21.3642C48.5573 11.9765 41.876 4.0891 32.8144 1.16676C31.2161 0.648748 29.5153 0.292007 27.6091 0.0769845C27.1399 0.0281158 23.9092 -0.0256398 23.5035 0.0134552ZM33.7381 15.1334C33.9727 15.2507 34.1634 15.4755 34.2318 15.7101C34.2709 15.8371 34.2807 18.5542 34.2709 24.6775L34.2562 33.4641L32.7069 31.089L31.1526 28.714V22.3269C31.1526 18.1975 31.1721 15.8762 31.2015 15.7638C31.2797 15.4902 31.4507 15.2751 31.6853 15.1481C31.8857 15.0455 31.959 15.0357 32.7264 15.0357C33.4498 15.0357 33.5768 15.0455 33.7381 15.1334Z" fill="#778295"/>
</svg>
