<svg width="51" height="50" viewBox="0 0 51 50" fill="none" xmlns="http://www.w3.org/2000/svg">
<path d="M25.2962 49.9072C24.6085 49.9072 23.9666 49.7238 23.3705 49.4029L17.2725 45.7808C16.3555 45.2764 16.814 45.093 17.0891 45.0013C18.3271 44.5887 18.5563 44.497 19.8401 43.7634C19.9777 43.6717 20.1611 43.7175 20.2986 43.8092L24.9753 46.6061C25.1587 46.6978 25.3879 46.6978 25.5255 46.6061L43.8194 36.0148C44.0028 35.9231 44.0945 35.7397 44.0945 35.5105V14.3738C44.0945 14.1446 44.0028 13.9612 43.8194 13.8695L25.5255 3.32409C25.3421 3.23239 25.1128 3.23239 24.9753 3.32409L6.68129 13.8695C6.4979 13.9612 6.4062 14.1904 6.4062 14.3738V35.5105C6.4062 35.6939 6.4979 35.9231 6.68129 36.0148L11.6789 38.9033C14.384 40.2788 16.0804 38.6741 16.0804 37.0694V16.2078C16.0804 15.9327 16.3097 15.6576 16.6306 15.6576H18.969C19.2441 15.6576 19.5192 15.8869 19.5192 16.2078V37.0694C19.5192 40.6915 17.5476 42.8005 14.1089 42.8005C13.0544 42.8005 12.2291 42.8005 9.89076 41.6543L5.07656 38.9033C3.88447 38.2156 3.15088 36.9318 3.15088 35.5563V14.4197C3.15088 13.0442 3.88447 11.7604 5.07656 11.0727L23.3705 0.48142C24.5168 -0.160473 26.0756 -0.160473 27.2219 0.48142L45.5159 11.0727C46.7079 11.7604 47.4415 13.0442 47.4415 14.4197V35.5563C47.4415 36.9318 46.7079 38.2156 45.5159 38.9033L27.2219 49.4946C26.6258 49.7697 25.9381 49.9072 25.2962 49.9072ZM30.9357 35.3729C22.912 35.3729 21.2614 31.705 21.2614 28.5872C21.2614 28.3121 21.4907 28.037 21.8116 28.037H24.1958C24.4709 28.037 24.7002 28.2204 24.7002 28.4955C25.067 30.9255 26.1215 32.1176 30.9816 32.1176C34.8329 32.1176 36.4835 31.2465 36.4835 29.1832C36.4835 27.9911 36.025 27.12 30.0187 26.524C25.0211 26.0196 21.9033 24.9192 21.9033 20.9303C21.9033 17.2165 25.0211 15.0157 30.248 15.0157C36.1167 15.0157 39.0052 17.0331 39.372 21.4347C39.372 21.5722 39.3262 21.7098 39.2345 21.8473C39.1428 21.939 39.0052 22.0307 38.8677 22.0307H36.4835C36.2542 22.0307 36.025 21.8473 35.9791 21.6181C35.429 19.0963 34.0076 18.271 30.248 18.271C26.0298 18.271 25.5255 19.7382 25.5255 20.8386C25.5255 22.1683 26.1215 22.5809 31.8068 23.3145C37.4463 24.0481 40.1056 25.1026 40.1056 29.0457C40.0598 33.0804 36.7586 35.3729 30.9357 35.3729Z" fill="#778295"/>
</svg>
