<svg width="58" height="58" viewBox="0 0 58 58" fill="none" xmlns="http://www.w3.org/2000/svg">
<path d="M29.012 53.1474V43.778C38.93 43.778 46.6246 33.947 42.8208 23.507C42.1157 21.5959 41.0032 19.8612 39.5606 18.4232C38.1179 16.9851 36.3796 15.8782 34.4664 15.1791C24.0288 11.4019 14.193 19.07 14.193 28.988H4.85254C4.85254 13.1806 20.138 0.853139 36.7139 6.03205C43.9421 8.30372 49.7228 14.0578 51.9703 21.2885C57.1444 37.862 44.817 53.1474 29.012 53.1474Z" fill="white"/>
<path d="M29.0413 43.836H19.7008V34.4932H29.0413V43.836ZM19.7008 50.9869H12.5499V43.836H19.7008V50.9869ZM12.5499 43.836H6.55176V37.8354H12.5499V43.836Z" fill="white"/>
<rect x="0.5" y="0.5" width="57" height="57" stroke="#151E2C"/>
</svg>
