<svg width="81" height="80" viewBox="0 0 81 80" fill="none" xmlns="http://www.w3.org/2000/svg">
<g clip-path="url(#clip0_3309_691)">
<path d="M45.4573 41.5776C46.4205 38.9707 45.0218 36.0518 42.3328 35.0582C39.6441 34.0648 36.6832 35.373 35.72 37.9799C34.7566 40.5872 36.1557 43.5061 38.8444 44.4995C41.5335 45.493 44.494 44.1849 45.4573 41.5776Z" fill="#53C1DE"/>
<path fill-rule="evenodd" clip-rule="evenodd" d="M59.6391 36.8571C62.1639 33.1861 66.2318 26.1517 62.6168 21.9216C59.0191 17.7105 51.3229 20.389 47.1293 22.1542C45.0893 18.1189 40.8102 11.0393 35.3142 11.9123C29.8413 12.7817 28.5096 20.6855 28.0545 25.1501C23.3959 24.7522 15.2208 24.5821 13.3275 29.7063C11.4396 34.816 17.6723 40.22 21.4458 42.9364C18.8766 46.6455 14.8582 53.4367 18.4589 57.6522C22.0842 61.8947 29.877 59.4063 34.1112 57.6199C36.1633 61.7122 40.2511 68.6254 45.7272 67.7555C51.2204 66.8829 52.7738 59.0338 53.2376 54.5456C57.743 54.8852 65.9856 54.8971 67.85 49.8512C69.7251 44.7763 63.3719 39.5554 59.6391 36.8571ZM53.4059 52.1385C53.4984 49.7655 53.3992 47.169 53.1195 44.4214C55.0464 42.5515 56.7631 40.659 58.2114 38.8025C60.9454 40.7873 66.914 45.2203 65.5209 48.9907C64.1148 52.7965 56.9611 52.4022 53.4059 52.1385ZM45.2822 65.3698C41.1964 66.0187 37.8493 59.6153 36.3316 56.5993C38.47 55.5377 40.7052 54.2108 42.9808 52.6612C45.7005 53.4085 48.3276 53.9578 50.7729 54.286C50.4411 57.4594 49.386 64.7179 45.2822 65.3698ZM20.3456 56.1255C17.6604 52.983 21.6081 47.0565 23.4997 44.324C25.5559 45.6282 27.9007 46.8862 30.4661 48.0701C31.214 50.6854 32.0949 53.1609 33.0748 55.4059C30.4262 56.524 23.0435 59.2827 20.3456 56.1255ZM15.6565 30.5668C17.0679 26.7468 24.4397 27.259 27.8762 27.5564C27.7636 29.9602 27.8273 32.5407 28.0668 35.2148C26.1197 37.1194 24.3675 39.0694 22.8745 40.992C20.2042 39.0668 14.2442 34.3892 15.6565 30.5668ZM35.7589 14.2979C39.8618 13.6463 43.4184 20.2391 44.9017 23.1632C42.7085 24.2271 40.4495 25.5262 38.1981 27.02C35.5487 26.303 32.9573 25.7661 30.5175 25.4281C30.8856 21.8276 31.6605 14.9488 35.7589 14.2979ZM51.5015 34.725C53.1625 35.5806 54.7247 36.4796 56.1616 37.4042C55.1524 38.6907 54.0027 40.0012 52.7347 41.3115C52.4145 39.1029 52.0072 36.904 51.5015 34.725ZM45.9382 25.3803C46.5956 26.9056 47.2059 28.5632 47.7593 30.3213C45.6488 29.4296 43.4985 28.6347 41.3156 27.9388C42.8754 26.9759 44.4255 26.1186 45.9382 25.3803ZM30.3847 33.0518C30.2827 31.2415 30.269 29.4935 30.3423 27.8374C32.0226 28.0747 33.7835 28.4118 35.5892 28.841C33.7864 30.1627 32.0494 31.5685 30.3847 33.0518ZM29.6686 45.0178C27.9546 44.1649 26.3673 43.2808 24.9334 42.378C25.9716 41.0488 27.1435 39.7014 28.425 38.364C28.7317 40.5976 29.1473 42.8185 29.6686 45.0178ZM35.2968 54.3799C34.6196 52.817 33.9905 51.1327 33.4227 49.3614C35.5515 50.2413 37.7147 51.0408 39.9081 51.745C38.3295 52.7518 36.7847 53.635 35.2968 54.3799ZM50.825 46.5482C50.9587 48.4281 50.9973 50.2131 50.9379 51.875C49.2277 51.6407 47.4168 51.2918 45.5412 50.8365C47.363 49.4796 49.1296 48.0522 50.825 46.5482ZM42.4806 50.0168C39.0935 49.0253 35.7713 47.7949 32.5442 46.3668C31.6494 43.0145 31.0114 39.6009 30.6414 36.1652C33.1473 33.7988 35.8373 31.6211 38.6864 29.6569C42.0819 30.6362 45.4086 31.8645 48.6244 33.3304C49.496 36.6692 50.124 40.0645 50.5322 43.4778C48.011 45.8369 45.3102 48.017 42.4806 50.0168ZM60.7307 23.4481C63.4274 26.6049 59.42 32.7971 57.5927 35.4585C55.5178 34.1166 53.2005 32.8324 50.7154 31.6481C49.9813 29.0262 49.1239 26.5719 48.1671 24.3684C51.2409 23.0769 58.0599 20.322 60.7307 23.4481Z" fill="#53C1DE"/>
</g>
<defs>
<clipPath id="clip0_3309_691">
<rect width="62" height="62" fill="white" transform="translate(22.2378) rotate(20.2782)"/>
</clipPath>
</defs>
</svg>
