<svg width="48" height="44" viewBox="0 0 48 44" fill="none" xmlns="http://www.w3.org/2000/svg">
<path d="M33.4447 30.6812C35.1746 30.5051 36.4869 29.0391 36.4272 27.2795C36.3677 25.5203 34.8763 24.1128 33.0867 24.1128H32.9675C31.1181 24.1714 29.6867 25.6962 29.7464 27.5142C29.8061 28.3939 30.1639 29.1562 30.7008 29.6841C28.6727 33.6134 25.5708 36.487 20.9181 38.8916C17.7566 40.5336 14.476 41.1201 11.1953 40.7097C8.51092 40.3578 6.42316 39.185 5.11066 37.2494C3.20196 34.3758 3.02307 31.2675 4.63366 28.1594C5.76708 25.9308 7.55639 24.2886 8.68981 23.4675C8.45124 22.7051 8.09325 21.415 7.91436 20.4767C-0.734989 26.6345 0.159848 34.9623 2.78449 38.8916C4.75286 41.8239 8.7495 43.642 13.1636 43.642C14.3566 43.642 15.5495 43.5245 16.7427 43.2316C24.378 41.7653 30.1641 37.3081 33.4447 30.6812ZM43.9433 23.4091C39.4099 18.1895 32.7289 15.3159 25.0936 15.3159H24.1394C23.6025 14.2603 22.4691 13.5564 21.2164 13.5564H21.097C19.248 13.6152 17.8166 15.1398 17.8761 16.958C17.9358 18.7173 19.4269 20.1248 21.2164 20.1248H21.3356C22.648 20.0662 23.7814 19.2452 24.2586 18.1308H25.3322C29.8658 18.1308 34.1605 19.4209 38.038 21.9428C41.0203 23.8781 43.1678 26.4 44.3608 29.4495C45.3749 31.9127 45.3152 34.3172 44.2414 36.3698C42.5713 39.478 39.7678 41.1787 36.0694 41.1787C33.6833 41.1787 31.4167 40.475 30.2236 39.9472C29.5675 40.5336 28.3744 41.4719 27.5392 42.0586C30.1044 43.2314 32.7289 43.8766 35.2342 43.8766C40.9606 43.8766 45.196 40.7681 46.8066 37.66C48.5363 34.2584 48.4169 28.3939 43.9433 23.4091ZM13.6408 31.678C13.7005 33.4373 15.1917 34.8447 16.9813 34.8447H17.1006C18.9497 34.7862 20.3813 33.2614 20.3216 31.4434C20.262 29.6839 18.7706 28.2766 16.9813 28.2766H16.862C16.7427 28.2766 16.5636 28.2766 16.4445 28.335C13.9988 24.3472 12.9847 20.0075 13.3427 15.3158C13.5811 11.797 14.7742 8.74731 16.862 6.22546C18.5917 4.05554 21.9322 2.99993 24.1991 2.94143C30.5219 2.82406 33.206 10.5653 33.385 13.6736C34.1605 13.8495 35.4728 14.2601 36.3677 14.5534C35.6517 5.05284 29.6867 0.126526 23.9605 0.126526C18.5917 0.126526 13.6408 3.93854 11.6722 9.56854C8.92841 17.0752 10.7179 24.2886 14.0583 29.9773C13.7602 30.3878 13.5811 31.0328 13.6408 31.678Z" fill="#778295"/>
</svg>
