<svg width="51" height="50" viewBox="0 0 51 50" fill="none" xmlns="http://www.w3.org/2000/svg">
<g clip-path="url(#clip0_3309_724)">
<path d="M42.5923 0H7.59229C3.45015 0 0.0922852 3.35786 0.0922852 7.5V42.5C0.0922852 46.6421 3.45015 50 7.59229 50H42.5923C46.7344 50 50.0923 46.6421 50.0923 42.5V7.5C50.0923 3.35786 46.7344 0 42.5923 0Z" fill="#778295"/>
<path d="M25.2876 8.59375C15.9126 11.8164 9.85791 18.3594 10.4439 22.2656C11.0298 26.1719 16.8892 29.2969 19.5259 31.3477C16.1079 33.1055 11.811 35.7422 11.9087 39.1602C12.104 43.8477 17.1821 42.3828 19.3306 41.0156C21.479 39.6484 23.6274 35.8398 22.2603 31.8359C25.2876 31.0547 27.9243 32.0312 28.7056 32.6172C31.7329 34.7656 30.1704 37.207 29.0962 37.5977C28.022 37.9883 28.7056 38.1836 29.3892 37.9883C30.0728 37.793 31.5376 36.8164 31.5376 35.1562C31.5376 30.957 27.0454 29.0039 21.479 30.4687C18.2564 27.0508 13.8618 25.4883 14.0571 21.7773C14.1548 20.4102 14.6431 16.8945 23.3345 12.5C32.0259 8.10547 38.1782 9.86328 37.397 13.8672C36.2251 19.9219 25.6782 24.0234 21.9673 20.5078C21.772 20.1172 21.0884 19.8242 21.479 20.8984C23.4321 25.7812 39.2524 23.5352 39.936 13.1836C40.1313 7.71484 32.2212 6.25 25.2876 8.59375ZM16.8892 39.8437C14.4478 40.625 14.5454 39.0625 14.6431 38.4766C14.936 36.8164 16.3032 34.7656 20.4048 32.7148C21.5767 36.4258 18.9399 39.2578 16.8892 39.8437Z" fill="white"/>
</g>
<defs>
<clipPath id="clip0_3309_724">
<rect width="50" height="50" fill="white" transform="translate(0.0922852)"/>
</clipPath>
</defs>
</svg>
