<svg width="116" height="21" viewBox="0 0 116 21" fill="none" xmlns="http://www.w3.org/2000/svg">
<g clip-path="url(#clip0_3357_7084)">
<path d="M9.53834 1.70078C9.70914 1.29014 10.2909 1.29014 10.4617 1.70078L12.5278 6.66826C12.5998 6.84138 12.7626 6.95967 12.9495 6.97465L18.3123 7.40458C18.7556 7.44012 18.9354 7.99338 18.5976 8.28271L14.5117 11.7827C14.3693 11.9047 14.3071 12.0961 14.3506 12.2785L15.5989 17.5117C15.7021 17.9443 15.2315 18.2862 14.8519 18.0544L10.2606 15.25C10.1006 15.1523 9.89938 15.1523 9.73937 15.25L5.14806 18.0544C4.76851 18.2862 4.29788 17.9443 4.40108 17.5117L5.64939 12.2785C5.69289 12.0961 5.6307 11.9047 5.48831 11.7827L1.40241 8.28271C1.06464 7.99338 1.24441 7.44012 1.68773 7.40458L7.05054 6.97465C7.23744 6.95967 7.40024 6.84138 7.47225 6.66826L9.53834 1.70078Z" fill="#F2F4F7"/>
<g clip-path="url(#clip1_3357_7084)">
<path d="M9.53834 1.70078C9.70914 1.29014 10.2909 1.29014 10.4617 1.70078L12.5278 6.66826C12.5998 6.84138 12.7626 6.95967 12.9495 6.97465L18.3123 7.40458C18.7556 7.44012 18.9354 7.99338 18.5976 8.28271L14.5117 11.7827C14.3693 11.9047 14.3071 12.0961 14.3506 12.2785L15.5989 17.5117C15.7021 17.9443 15.2315 18.2862 14.8519 18.0544L10.2606 15.25C10.1006 15.1523 9.89938 15.1523 9.73937 15.25L5.14806 18.0544C4.76851 18.2862 4.29788 17.9443 4.40108 17.5117L5.64939 12.2785C5.69289 12.0961 5.6307 11.9047 5.48831 11.7827L1.40241 8.28271C1.06464 7.99338 1.24441 7.44012 1.68773 7.40458L7.05054 6.97465C7.23744 6.95967 7.40024 6.84138 7.47225 6.66826L9.53834 1.70078Z" fill="#FEC84B"/>
</g>
</g>
<g clip-path="url(#clip2_3357_7084)">
<path d="M33.5383 1.70078C33.7091 1.29014 34.2909 1.29014 34.4617 1.70078L36.5278 6.66826C36.5998 6.84138 36.7626 6.95967 36.9495 6.97465L42.3123 7.40458C42.7556 7.44012 42.9354 7.99338 42.5976 8.28271L38.5117 11.7827C38.3693 11.9047 38.3071 12.0961 38.3506 12.2785L39.5989 17.5117C39.7021 17.9443 39.2315 18.2862 38.8519 18.0544L34.2606 15.25C34.1006 15.1523 33.8994 15.1523 33.7394 15.25L29.1481 18.0544C28.7685 18.2862 28.2979 17.9443 28.4011 17.5117L29.6494 12.2785C29.6929 12.0961 29.6307 11.9047 29.4883 11.7827L25.4024 8.28271C25.0646 7.99338 25.2444 7.44012 25.6877 7.40458L31.0505 6.97465C31.2374 6.95967 31.4002 6.84138 31.4722 6.66826L33.5383 1.70078Z" fill="#F2F4F7"/>
<g clip-path="url(#clip3_3357_7084)">
<path d="M33.5383 1.70078C33.7091 1.29014 34.2909 1.29014 34.4617 1.70078L36.5278 6.66826C36.5998 6.84138 36.7626 6.95967 36.9495 6.97465L42.3123 7.40458C42.7556 7.44012 42.9354 7.99338 42.5976 8.28271L38.5117 11.7827C38.3693 11.9047 38.3071 12.0961 38.3506 12.2785L39.5989 17.5117C39.7021 17.9443 39.2315 18.2862 38.8519 18.0544L34.2606 15.25C34.1006 15.1523 33.8994 15.1523 33.7394 15.25L29.1481 18.0544C28.7685 18.2862 28.2979 17.9443 28.4011 17.5117L29.6494 12.2785C29.6929 12.0961 29.6307 11.9047 29.4883 11.7827L25.4024 8.28271C25.0646 7.99338 25.2444 7.44012 25.6877 7.40458L31.0505 6.97465C31.2374 6.95967 31.4002 6.84138 31.4722 6.66826L33.5383 1.70078Z" fill="#FEC84B"/>
</g>
</g>
<g clip-path="url(#clip4_3357_7084)">
<path d="M57.5383 1.70078C57.7091 1.29014 58.2909 1.29014 58.4617 1.70078L60.5278 6.66826C60.5998 6.84138 60.7626 6.95967 60.9495 6.97465L66.3123 7.40458C66.7556 7.44012 66.9354 7.99338 66.5976 8.28271L62.5117 11.7827C62.3693 11.9047 62.3071 12.0961 62.3506 12.2785L63.5989 17.5117C63.7021 17.9443 63.2315 18.2862 62.8519 18.0544L58.2606 15.25C58.1006 15.1523 57.8994 15.1523 57.7394 15.25L53.1481 18.0544C52.7685 18.2862 52.2979 17.9443 52.4011 17.5117L53.6494 12.2785C53.6929 12.0961 53.6307 11.9047 53.4883 11.7827L49.4024 8.28271C49.0646 7.99338 49.2444 7.44012 49.6877 7.40458L55.0505 6.97465C55.2374 6.95967 55.4002 6.84138 55.4722 6.66826L57.5383 1.70078Z" fill="#F2F4F7"/>
<g clip-path="url(#clip5_3357_7084)">
<path d="M57.5383 1.70078C57.7091 1.29014 58.2909 1.29014 58.4617 1.70078L60.5278 6.66826C60.5998 6.84138 60.7626 6.95967 60.9495 6.97465L66.3123 7.40458C66.7556 7.44012 66.9354 7.99338 66.5976 8.28271L62.5117 11.7827C62.3693 11.9047 62.3071 12.0961 62.3506 12.2785L63.5989 17.5117C63.7021 17.9443 63.2315 18.2862 62.8519 18.0544L58.2606 15.25C58.1006 15.1523 57.8994 15.1523 57.7394 15.25L53.1481 18.0544C52.7685 18.2862 52.2979 17.9443 52.4011 17.5117L53.6494 12.2785C53.6929 12.0961 53.6307 11.9047 53.4883 11.7827L49.4024 8.28271C49.0646 7.99338 49.2444 7.44012 49.6877 7.40458L55.0505 6.97465C55.2374 6.95967 55.4002 6.84138 55.4722 6.66826L57.5383 1.70078Z" fill="#FEC84B"/>
</g>
</g>
<g clip-path="url(#clip6_3357_7084)">
<path d="M81.5383 1.70078C81.7091 1.29014 82.2909 1.29014 82.4617 1.70078L84.5278 6.66826C84.5998 6.84138 84.7626 6.95967 84.9495 6.97465L90.3123 7.40458C90.7556 7.44012 90.9354 7.99338 90.5976 8.28271L86.5117 11.7827C86.3693 11.9047 86.3071 12.0961 86.3506 12.2785L87.5989 17.5117C87.7021 17.9443 87.2315 18.2862 86.8519 18.0544L82.2606 15.25C82.1006 15.1523 81.8994 15.1523 81.7394 15.25L77.1481 18.0544C76.7685 18.2862 76.2979 17.9443 76.4011 17.5117L77.6494 12.2785C77.6929 12.0961 77.6307 11.9047 77.4883 11.7827L73.4024 8.28271C73.0646 7.99338 73.2444 7.44012 73.6877 7.40458L79.0505 6.97465C79.2374 6.95967 79.4002 6.84138 79.4722 6.66826L81.5383 1.70078Z" fill="#F2F4F7"/>
<g clip-path="url(#clip7_3357_7084)">
<path d="M81.5383 1.70078C81.7091 1.29014 82.2909 1.29014 82.4617 1.70078L84.5278 6.66826C84.5998 6.84138 84.7626 6.95967 84.9495 6.97465L90.3123 7.40458C90.7556 7.44012 90.9354 7.99338 90.5976 8.28271L86.5117 11.7827C86.3693 11.9047 86.3071 12.0961 86.3506 12.2785L87.5989 17.5117C87.7021 17.9443 87.2315 18.2862 86.8519 18.0544L82.2606 15.25C82.1006 15.1523 81.8994 15.1523 81.7394 15.25L77.1481 18.0544C76.7685 18.2862 76.2979 17.9443 76.4011 17.5117L77.6494 12.2785C77.6929 12.0961 77.6307 11.9047 77.4883 11.7827L73.4024 8.28271C73.0646 7.99338 73.2444 7.44012 73.6877 7.40458L79.0505 6.97465C79.2374 6.95967 79.4002 6.84138 79.4722 6.66826L81.5383 1.70078Z" fill="#FEC84B"/>
</g>
</g>
<g clip-path="url(#clip8_3357_7084)">
<path d="M105.538 1.70078C105.709 1.29014 106.291 1.29014 106.462 1.70078L108.528 6.66826C108.6 6.84138 108.763 6.95967 108.949 6.97465L114.312 7.40458C114.756 7.44012 114.935 7.99338 114.598 8.28271L110.512 11.7827C110.369 11.9047 110.307 12.0961 110.351 12.2785L111.599 17.5117C111.702 17.9443 111.231 18.2862 110.852 18.0544L106.261 15.25C106.101 15.1523 105.899 15.1523 105.739 15.25L101.148 18.0544C100.769 18.2862 100.298 17.9443 100.401 17.5117L101.649 12.2785C101.693 12.0961 101.631 11.9047 101.488 11.7827L97.4024 8.28271C97.0646 7.99338 97.2444 7.44012 97.6877 7.40458L103.051 6.97465C103.237 6.95967 103.4 6.84138 103.472 6.66826L105.538 1.70078Z" fill="#F2F4F7"/>
<g clip-path="url(#clip9_3357_7084)">
<path d="M105.538 1.70078C105.709 1.29014 106.291 1.29014 106.462 1.70078L108.528 6.66826C108.6 6.84138 108.763 6.95967 108.949 6.97465L114.312 7.40458C114.756 7.44012 114.935 7.99338 114.598 8.28271L110.512 11.7827C110.369 11.9047 110.307 12.0961 110.351 12.2785L111.599 17.5117C111.702 17.9443 111.231 18.2862 110.852 18.0544L106.261 15.25C106.101 15.1523 105.899 15.1523 105.739 15.25L101.148 18.0544C100.769 18.2862 100.298 17.9443 100.401 17.5117L101.649 12.2785C101.693 12.0961 101.631 11.9047 101.488 11.7827L97.4024 8.28271C97.0646 7.99338 97.2444 7.44012 97.6877 7.40458L103.051 6.97465C103.237 6.95967 103.4 6.84138 103.472 6.66826L105.538 1.70078Z" fill="#FEC84B"/>
</g>
</g>
<defs>
<clipPath id="clip0_3357_7084">
<rect width="20" height="20" fill="white" transform="translate(0 0.0908203)"/>
</clipPath>
<clipPath id="clip1_3357_7084">
<rect width="20" height="20" fill="white" transform="translate(0 0.0908203)"/>
</clipPath>
<clipPath id="clip2_3357_7084">
<rect width="20" height="20" fill="white" transform="translate(24 0.0908203)"/>
</clipPath>
<clipPath id="clip3_3357_7084">
<rect width="20" height="20" fill="white" transform="translate(24 0.0908203)"/>
</clipPath>
<clipPath id="clip4_3357_7084">
<rect width="20" height="20" fill="white" transform="translate(48 0.0908203)"/>
</clipPath>
<clipPath id="clip5_3357_7084">
<rect width="20" height="20" fill="white" transform="translate(48 0.0908203)"/>
</clipPath>
<clipPath id="clip6_3357_7084">
<rect width="20" height="20" fill="white" transform="translate(72 0.0908203)"/>
</clipPath>
<clipPath id="clip7_3357_7084">
<rect width="20" height="20" fill="white" transform="translate(72 0.0908203)"/>
</clipPath>
<clipPath id="clip8_3357_7084">
<rect width="20" height="20" fill="white" transform="translate(96 0.0908203)"/>
</clipPath>
<clipPath id="clip9_3357_7084">
<rect width="20" height="20" fill="white" transform="translate(96 0.0908203)"/>
</clipPath>
</defs>
</svg>
