<svg width="51" height="50" viewBox="0 0 51 50" fill="none" xmlns="http://www.w3.org/2000/svg">
<path d="M14.4072 21.4062C15.8656 15.5729 19.5114 12.6562 25.3447 12.6562C34.0947 12.6562 35.1885 19.2187 39.5635 20.3125C42.4801 21.0417 45.0322 19.9479 47.2197 17.0312C45.7614 22.8646 42.1156 25.7812 36.2822 25.7812C27.5322 25.7812 26.4385 19.2188 22.0635 18.125C19.1468 17.3958 16.5947 18.4896 14.4072 21.4062ZM3.46973 34.5312C4.92806 28.6979 8.57389 25.7812 14.4072 25.7812C23.1572 25.7812 24.251 32.3437 28.626 33.4375C31.5426 34.1667 34.0947 33.0729 36.2822 30.1562C34.8239 35.9896 31.1781 38.9062 25.3447 38.9062C16.5947 38.9062 15.501 32.3438 11.126 31.25C8.20931 30.5208 5.65723 31.6146 3.46973 34.5312Z" fill="#778295"/>
</svg>
