<svg width="20" height="20" viewBox="0 0 20 20" fill="none" xmlns="http://www.w3.org/2000/svg">
<g clip-path="url(#clip0_3357_11796)">
<path d="M10 20C15.5228 20 20 15.5228 20 10C20 4.47715 15.5228 0 10 0C4.47715 0 0 4.47715 0 10C0 15.5228 4.47715 20 10 20Z" fill="#02BC7D"/>
<path fill-rule="evenodd" clip-rule="evenodd" d="M7.6629 13.7449L4.78167 10.6289C4.38721 10.2023 4.40985 9.52742 4.83204 9.12885C5.25422 8.73028 5.92218 8.75322 6.31663 9.17975L8.53909 11.5832L12.057 8.26207C12.0886 8.23217 12.1217 8.20478 12.1558 8.17959L13.8101 6.61783C14.2323 6.21926 14.9003 6.2422 15.2947 6.66879C15.6892 7.09531 15.6665 7.7703 15.2444 8.16887L10.1917 12.939L10.1863 12.9332L8.43848 14.5833L7.6629 13.7449Z" fill="white"/>
</g>
<defs>
<clipPath id="clip0_3357_11796">
<rect width="20" height="20" fill="white"/>
</clipPath>
</defs>
</svg>
