<svg width="51" height="50" viewBox="0 0 51 50" fill="none" xmlns="http://www.w3.org/2000/svg">
<g clip-path="url(#clip0_3309_705)">
<path d="M43.3787 0H8.37866C4.23653 0 0.878662 3.35786 0.878662 7.5V42.5C0.878662 46.6421 4.23653 50 8.37866 50H43.3787C47.5208 50 50.8787 46.6421 50.8787 42.5V7.5C50.8787 3.35786 47.5208 0 43.3787 0Z" fill="#778295"/>
<path d="M23.6326 27.7344H29.8826V23.7305H12.4021V27.7344H18.6521V45.6055H23.6326V27.7344ZM31.8357 44.6289C32.6267 45.0391 33.5935 45.3418 34.6677 45.5469C35.7419 45.752 36.9138 45.8496 38.0857 45.8496C39.2576 45.8496 40.3318 45.7422 41.406 45.5176C42.4802 45.293 43.3591 44.9219 44.1404 44.4434C44.9314 43.9258 45.6052 43.2715 45.9958 42.3926C46.3865 41.5137 46.6892 40.5371 46.6892 39.2676C46.6892 38.3789 46.5525 37.6074 46.2888 36.9238C46.0251 36.2402 45.6443 35.6543 45.1169 35.166C44.6189 34.6484 44.0427 34.1895 43.3591 33.7988C42.6755 33.4082 41.8943 32.998 41.0154 32.627C40.3708 32.3633 39.8435 32.1094 39.2576 31.8555C38.7498 31.6016 38.3103 31.3477 37.988 31.0937C37.6267 30.8301 37.3533 30.5566 37.158 30.2734C36.9626 29.9805 36.865 29.6582 36.865 29.2969C36.865 28.9648 36.9519 28.6621 37.1287 28.3887C37.3054 28.1152 37.5486 27.8906 37.8611 27.6953C38.1736 27.5 38.5642 27.3535 39.033 27.2461C39.4919 27.1387 39.9998 27.0898 40.5955 27.0898C41.0056 27.0898 41.4353 27.1201 41.865 27.1816C42.3142 27.2432 42.7732 27.3379 43.2322 27.4648C43.6912 27.5918 44.1404 27.748 44.5994 27.9434C45.0291 28.1387 45.4294 28.3633 45.7712 28.6172V24.0273C45.0291 23.7441 44.2087 23.5293 43.3298 23.3926C42.4509 23.2559 41.4744 23.1875 40.3025 23.1875C39.1306 23.1875 38.0564 23.3145 36.9822 23.5586C35.908 23.8027 35.0291 24.1934 34.2478 24.7305C33.4568 25.2578 32.8806 25.9023 32.3923 26.7812C31.9334 27.6016 31.7087 28.5391 31.7087 29.7109C31.7087 31.1758 32.1287 32.4453 32.9783 33.4219C33.8181 34.4961 35.1267 35.2773 36.7869 36.0586C37.4607 36.332 38.0564 36.6055 38.6423 36.8691C39.2283 37.1328 39.7166 37.4062 40.1072 37.6895C40.5271 37.9727 40.8591 38.2852 41.0837 38.6172C41.3279 38.9492 41.4548 39.3398 41.4548 39.7891C41.4548 40.1016 41.3787 40.3945 41.2302 40.668C41.0818 40.9414 40.8494 41.1758 40.5369 41.3711C40.2244 41.5664 39.8435 41.7227 39.365 41.8398C38.906 41.9473 38.3884 42.0059 37.7048 42.0059C36.6306 42.0059 35.5564 41.8203 34.5798 41.4492C33.5056 41.0781 32.5291 40.5215 31.8357 39.9414V44.6289Z" fill="white"/>
</g>
<defs>
<clipPath id="clip0_3309_705">
<rect width="50" height="50" fill="white" transform="translate(0.878662)"/>
</clipPath>
</defs>
</svg>
