<svg width="20" height="21" viewBox="0 0 20 21" fill="none" xmlns="http://www.w3.org/2000/svg">
<path d="M9 1.5C9 0.947754 9.44775 0.5 10 0.5C10.5522 0.5 11 0.947754 11 1.5V2.5C11 3.05225 10.5522 3.5 10 3.5C9.44775 3.5 9 3.05225 9 2.5V1.5Z" fill="#0252CD"/>
<path d="M15 10.5C15 13.2615 12.7615 15.5 10 15.5C7.23853 15.5 5 13.2615 5 10.5C5 7.73853 7.23853 5.5 10 5.5C12.7615 5.5 15 7.73853 15 10.5Z" fill="#0252CD"/>
<path d="M10 17.5C9.44775 17.5 9 17.9478 9 18.5V19.5C9 20.0522 9.44775 20.5 10 20.5C10.5522 20.5 11 20.0522 11 19.5V18.5C11 17.9478 10.5522 17.5 10 17.5Z" fill="#0252CD"/>
<path d="M2.92896 4.84314C2.53833 4.45251 2.53833 3.81946 2.92896 3.42883C3.31946 3.03833 3.95264 3.03833 4.34314 3.42883L5.05017 4.13599C5.4408 4.52649 5.4408 5.15967 5.05017 5.55017C4.65967 5.94067 4.02649 5.94067 3.63599 5.55017L2.92896 4.84314Z" fill="#0252CD"/>
<path d="M14.9497 15.4497C14.5592 15.8402 14.5592 16.4734 14.9497 16.8639L15.6569 17.571C16.0474 17.9615 16.6805 17.9615 17.071 17.571C17.4615 17.1805 17.4615 16.5474 17.071 16.1569L16.3639 15.4497C15.9734 15.0592 15.3402 15.0592 14.9497 15.4497Z" fill="#0252CD"/>
<path d="M1 11.5C0.447754 11.5 0 11.0522 0 10.5C0 9.94775 0.447754 9.5 1 9.5H2C2.55225 9.5 3 9.94775 3 10.5C3 11.0522 2.55225 11.5 2 11.5H1Z" fill="#0252CD"/>
<path d="M17 10.5C17 11.0522 17.4478 11.5 18 11.5H19C19.5522 11.5 20 11.0522 20 10.5C20 9.94775 19.5522 9.5 19 9.5H18C17.4478 9.5 17 9.94775 17 10.5Z" fill="#0252CD"/>
<path d="M3.74829 17.051C3.32532 17.406 2.69446 17.3508 2.33948 16.9279C1.9845 16.5048 2.03967 15.874 2.46277 15.5189L3.22876 14.8762C3.65186 14.5212 4.28259 14.5764 4.6377 14.9994C4.99268 15.4225 4.9375 16.0532 4.5144 16.4083L3.74829 17.051Z" fill="#0252CD"/>
<path d="M15.3623 6.00037C15.7173 6.42346 16.348 6.47864 16.7711 6.12366L17.5371 5.48083C17.9602 5.12585 18.0154 4.49512 17.6604 4.07202C17.3054 3.64893 16.6747 3.59375 16.2516 3.94885L15.4855 4.59155C15.0625 4.94653 15.0073 5.57739 15.3623 6.00037Z" fill="#0252CD"/>
</svg>
